<svg id="Layer_1" data-name="Layer 1" xmlns="http://www.w3.org/2000/svg" viewBox="0 0 1920 416"><defs><style>.cls-1{fill:#080808;}.cls-2{fill:#00adef;}</style></defs><title>for websitebig tagline logo</title><polygon class="cls-1" points="262.16 232.51 227.39 289 227.3 288.84 227.3 288.81 192.58 232.23 192.53 232.14 180.07 211.83 178.05 208.51 144.37 153.57 115.24 106.06 187.94 106.06 215.83 153.57 227.32 173.16 261.95 232.14 262.02 232.25 262.16 232.51"/><polygon class="cls-2" points="339.44 106.1 274.57 212.98 246.48 166.68 253.96 153.54 238.5 153.54 209.67 106.03 244.97 106.06 244.95 106.08 339.44 106.1"/><polygon class="cls-1" points="176.44 217.75 132.94 288.96 20.8 106 93.49 106.02 159.08 217.75 176.44 217.75"/><path class="cls-1" d="M461.82,210.43l-14-42.42-14,42.42h-9.19l-29.55-89.79a10.21,10.21,0,0,0-3.91-5.14,10,10,0,0,0-6-2.17,2.22,2.22,0,0,1,0-4.44H417a2.22,2.22,0,1,1,0,4.44c-2.25,0-3.09.92-3.52,1.61-.75,1.18-.82,2.69-.23,4.61l22.52,68.2,9.32-28.3-12.85-38.81a8.77,8.77,0,0,0-2.18-3.66,12.74,12.74,0,0,0-3.74-2.7,9.4,9.4,0,0,0-4-1,2.22,2.22,0,0,1,0-4.44h51a2.22,2.22,0,1,1,0,4.44,9.82,9.82,0,0,0-5.87,2.17,10.15,10.15,0,0,0-3.9,5.13L457.17,140l15.76,47.78,22.53-68.24a5.36,5.36,0,0,0-.23-4.57c-.43-.69-1.27-1.61-3.52-1.61a2.22,2.22,0,1,1,0-4.44h21.14v2.22a2.17,2.17,0,0,1-2.23,2.22,10,10,0,0,0-6,2.17,10.11,10.11,0,0,0-3.91,5.13L471,210.43Zm-7.45-97.1c-2.84,0-3.55,1.19-3.78,1.58-.72,1.19-.77,2.7-.18,4.64l3.91,11.91,4-12a5.53,5.53,0,0,0-.19-4.59C457.91,114.52,457.2,113.33,454.37,113.33Z"/><path class="cls-1" d="M511.05,110.69v.42a.38.38,0,0,1-.43.42A13.12,13.12,0,0,0,499,120.08l-29.29,88.55h-6.58l-15.28-46.38-15.27,46.38H426l-29.14-88.55a12,12,0,0,0-4.55-6,11.84,11.84,0,0,0-7.08-2.52.42.42,0,1,1,0-.84H417a.42.42,0,1,1,0,.84,5.52,5.52,0,0,0-5,2.45q-1.55,2.46-.42,6.1L435.8,193.5,447,159.45l-13-39.37a10.54,10.54,0,0,0-2.59-4.35,14.62,14.62,0,0,0-4.28-3.08,11,11,0,0,0-4.76-1.12.42.42,0,0,1,0-.84h51c.38,0,.56.14.56.42s-.18.42-.56.42a11.65,11.65,0,0,0-6.93,2.52,12,12,0,0,0-4.56,6L455.28,140l17.65,53.53,24.24-73.42q1.13-3.64-.42-6.1a5.51,5.51,0,0,0-5-2.45.42.42,0,0,1,0-.84h19.34Zm-62.36,9.39,5.61,17.09L460,120.08a7.31,7.31,0,0,0-.35-6.1q-1.47-2.45-5.32-2.45T449,114A7.31,7.31,0,0,0,448.69,120.08Z"/><path class="cls-1" d="M517.21,210.43a2.22,2.22,0,0,1,0-4.44,6.81,6.81,0,0,0,6.75-6.75V120.08a6.83,6.83,0,0,0-6.75-6.75,2.22,2.22,0,0,1,0-4.44h77.6v21a2.22,2.22,0,0,1-4.44,0,23.66,23.66,0,0,0-1-6.11,18.35,18.35,0,0,0-3.59-6.63,6.92,6.92,0,0,0-5.54-2.84h-38V157h35.89a6.81,6.81,0,0,0,3.45-.88,6.3,6.3,0,0,0,2.41-2.42,6.72,6.72,0,0,0,.89-3.45,2.22,2.22,0,0,1,4.44,0V169a2.22,2.22,0,1,1-4.44,0,6.23,6.23,0,0,0-2-4.67,6.58,6.58,0,0,0-4.77-1.94H542.27V205H583.2a6.63,6.63,0,0,0,4.39-1.62,11.3,11.3,0,0,0,3.21-4.3,36.7,36.7,0,0,0,1.87-5.41,17.93,17.93,0,0,0,.64-4.39v-2.22h2.22a2.22,2.22,0,0,1,2.22,2.37v21Z"/><path class="cls-1" d="M595.11,188.87h.42c.28,0,.43.19.43.57v19.19H517.21a.42.42,0,1,1,0-.84,8.62,8.62,0,0,0,8.55-8.55V120.08a8.62,8.62,0,0,0-8.55-8.55.42.42,0,0,1,0-.84H593v19.2a.42.42,0,1,1-.84,0,25.13,25.13,0,0,0-1-6.59A20,20,0,0,0,587.2,116a8.71,8.71,0,0,0-6.94-3.5H540.47v46.24h37.69a8.56,8.56,0,0,0,4.34-1.12,8.16,8.16,0,0,0,3.09-3.08,8.7,8.7,0,0,0,1.12-4.35.42.42,0,0,1,.84,0V169c0,.37-.14.56-.42.56s-.42-.19-.42-.56a8,8,0,0,0-2.52-6,8.39,8.39,0,0,0-6-2.45H540.47v46.24H583.2a8.48,8.48,0,0,0,5.54-2,13.07,13.07,0,0,0,3.71-5,38.3,38.3,0,0,0,2-5.67,19.59,19.59,0,0,0,.7-4.84v-.42Z"/><path class="cls-1" d="M660.55,210.43a2.22,2.22,0,1,1,0-4.44c2.23,0,3.07-1,3.51-1.66a5,5,0,0,0,.12-4.48l-12.36-37.48H631.58l-12.34,37.44a5.25,5.25,0,0,0,.25,4.52c.43.71,1.27,1.66,3.51,1.66a2.17,2.17,0,0,1,2.22,2.22,2.22,2.22,0,0,1-2.36,2.22H604.08a2.22,2.22,0,0,1,0-4.44,10,10,0,0,0,6-2.17,10.22,10.22,0,0,0,3.91-5.13l29.55-89.8h9.19l29.69,89.79a10.21,10.21,0,0,0,3.91,5.14,9.82,9.82,0,0,0,5.87,2.17,2.22,2.22,0,1,1,0,4.44ZM650.08,157l-8.32-25.38L633.34,157Z"/><path class="cls-1" d="M692.77,208.21c0,.28-.18.42-.56.42H660.55a.42.42,0,0,1,0-.84,5.46,5.46,0,0,0,5-2.52,6.72,6.72,0,0,0,.28-6l-12.75-38.67H630.28l-12.75,38.67a7,7,0,0,0,.42,6,5.46,5.46,0,0,0,5,2.52.37.37,0,0,1,.42.42c0,.28-.19.42-.56.42H604.08a.42.42,0,1,1,0-.84,11.84,11.84,0,0,0,7.08-2.52,12,12,0,0,0,4.55-6l29.14-88.55h6.59l29.28,88.55a12,12,0,0,0,4.56,6,11.65,11.65,0,0,0,6.93,2.52C692.59,207.79,692.77,207.93,692.77,208.21Zm-61.93-49.46h21.72l-10.79-32.93Z"/><path class="cls-1" d="M696.86,210.43v-2.22a2.17,2.17,0,0,1,2.22-2.22,6.81,6.81,0,0,0,6.75-6.75V120.08a6.83,6.83,0,0,0-6.75-6.75,2.22,2.22,0,0,1,0-4.44h31.8a2.22,2.22,0,1,1,0,4.44,6.79,6.79,0,0,0-6.74,6.75V205h38a6.89,6.89,0,0,0,5.54-2.85,18.23,18.23,0,0,0,3.59-6.62,24,24,0,0,0,1-6.25h0a2.22,2.22,0,1,1,4.44.15v21Z"/><path class="cls-1" d="M698.66,208.63v-.42a.37.37,0,0,1,.42-.42,8.62,8.62,0,0,0,8.55-8.55V120.08a8.62,8.62,0,0,0-8.55-8.55.42.42,0,0,1,0-.84h31.8a.42.42,0,1,1,0,.84,8.6,8.6,0,0,0-8.54,8.55v86.73h39.79a8.71,8.71,0,0,0,6.94-3.5A20,20,0,0,0,773,196a25.47,25.47,0,0,0,1-6.73v.15q0-.57.42-.57t.42.57v19.19H698.66Z"/><path class="cls-1" d="M794.08,210.43a2.22,2.22,0,0,1,0-4.44,6.79,6.79,0,0,0,6.74-6.75V114.31h-24.4a6.67,6.67,0,0,0-4.39,1.62,11.1,11.1,0,0,0-3.2,4.3,37.51,37.51,0,0,0-1.87,5.41,17.53,17.53,0,0,0-.65,4.25,2.22,2.22,0,1,1-4.44,0v-21h96.22v21a2.29,2.29,0,0,1-4.58,0,19.6,19.6,0,0,0-.59-4.29,29,29,0,0,0-1.84-5.34,12.47,12.47,0,0,0-3.25-4.35,6.36,6.36,0,0,0-4.29-1.6h-24.4v84.93a6.79,6.79,0,0,0,6.74,6.75,2.22,2.22,0,1,1,0,4.44Z"/><path class="cls-1" d="M843.54,112.51h-26.2v86.73a8.6,8.6,0,0,0,8.54,8.55.42.42,0,1,1,0,.84h-31.8a.42.42,0,1,1,0-.84,8.6,8.6,0,0,0,8.54-8.55V112.51h-26.2a8.46,8.46,0,0,0-5.53,2,13,13,0,0,0-3.71,5,38.39,38.39,0,0,0-2,5.67,19.23,19.23,0,0,0-.7,4.7.42.42,0,1,1-.84,0v-19.2h92.62v19.2c0,.27-.16.42-.49.42s-.49-.15-.49-.42a21.4,21.4,0,0,0-.63-4.7,30.87,30.87,0,0,0-2-5.67,14.08,14.08,0,0,0-3.72-5A8.2,8.2,0,0,0,843.54,112.51Z"/><path class="cls-1" d="M934.89,210.43a2.22,2.22,0,0,1,0-4.44,6.23,6.23,0,0,0,4.67-2,6.52,6.52,0,0,0,1.94-4.77V162.37H889.33v36.87a6.81,6.81,0,0,0,6.75,6.75,2.22,2.22,0,0,1,0,4.44h-34v-2.22a2.17,2.17,0,0,1,2.22-2.22,6.79,6.79,0,0,0,6.75-6.75V120.08a6.79,6.79,0,0,0-6.75-6.75,2.22,2.22,0,0,1,0-4.44h31.81a2.22,2.22,0,0,1,0,4.44,6.81,6.81,0,0,0-6.75,6.75V157H941.5V120.08a6.52,6.52,0,0,0-1.94-4.77,6.23,6.23,0,0,0-4.67-2,2.22,2.22,0,0,1,0-4.44h31.67a2.22,2.22,0,1,1,0,4.44,6.19,6.19,0,0,0-4.66,2,6.53,6.53,0,0,0-1.95,4.77v79.16A6.53,6.53,0,0,0,961.9,204a6.19,6.19,0,0,0,4.66,2,2.22,2.22,0,1,1,0,4.44Z"/><path class="cls-1" d="M863.85,208.63v-.42a.37.37,0,0,1,.42-.42,8.6,8.6,0,0,0,8.55-8.55V120.08a8.6,8.6,0,0,0-8.55-8.55.42.42,0,0,1,0-.84h31.81a.42.42,0,1,1,0,.84,8.62,8.62,0,0,0-8.55,8.55v38.67H943.3V120.08a8.36,8.36,0,0,0-2.45-6,8,8,0,0,0-6-2.52.42.42,0,1,1,0-.84h31.67c.37,0,.56.14.56.42s-.19.42-.56.42a8,8,0,0,0-5.95,2.52,8.33,8.33,0,0,0-2.46,6v79.16a8.33,8.33,0,0,0,2.46,6,8,8,0,0,0,5.95,2.52c.37,0,.56.14.56.42s-.19.42-.56.42H934.89a.42.42,0,1,1,0-.84,8,8,0,0,0,6-2.52,8.36,8.36,0,0,0,2.45-6V160.57H887.53v38.67a8.62,8.62,0,0,0,8.55,8.55.42.42,0,1,1,0,.84H863.85Z"/><path class="cls-1" d="M974.71,210.43v-2.22a2.17,2.17,0,0,1,2.22-2.22,6.81,6.81,0,0,0,6.75-6.75V120.08a6.83,6.83,0,0,0-6.75-6.75,2.22,2.22,0,1,1,0-4.44h31.8a2.22,2.22,0,1,1,0,4.44,6.79,6.79,0,0,0-6.74,6.75v79.16a6.81,6.81,0,0,0,6.74,6.75,2.22,2.22,0,1,1,0,4.44Z"/><path class="cls-1" d="M976.51,208.63v-.42a.37.37,0,0,1,.42-.42,8.6,8.6,0,0,0,8.54-8.55V120.08a8.6,8.6,0,0,0-8.54-8.55.42.42,0,1,1,0-.84h31.8a.42.42,0,0,1,0,.84,8.6,8.6,0,0,0-8.54,8.55v79.16a8.6,8.6,0,0,0,8.54,8.55.42.42,0,1,1,0,.84H976.51Z"/><path class="cls-1" d="M1075,210.43a2.22,2.22,0,0,1,0-4.44c1.5,0,1.85-.56,2-1.65a8.91,8.91,0,0,0-1.57-5.7l-20.46-34-20.32,34a8.2,8.2,0,0,0-1.66,5.67c.19,1.26.72,1.69,2.07,1.69a2.17,2.17,0,0,1,2.22,2.22,2.22,2.22,0,0,1-2.36,2.22h-18.77a2.22,2.22,0,1,1,0-4.44,13.7,13.7,0,0,0,6.92-2.27,16,16,0,0,0,5.69-5.4L1052,159.59,1028.77,121a16.07,16.07,0,0,0-5.69-5.41,13.7,13.7,0,0,0-6.92-2.27,2.22,2.22,0,1,1,0-4.44H1048a2.22,2.22,0,1,1,0,4.44c-1.51,0-1.86.56-2,1.66a8.29,8.29,0,0,0,1.55,5.52l17.13,28.71,17.22-28.67a8.38,8.38,0,0,0,1.58-5.56c-.14-1.1-.49-1.66-2-1.66a2.22,2.22,0,0,1,0-4.44h18.92a2.22,2.22,0,1,1,0,4.44,13.67,13.67,0,0,0-6.92,2.27,16,16,0,0,0-5.69,5.4l-20,33.27,26.48,44a16.13,16.13,0,0,0,5.69,5.4,13.73,13.73,0,0,0,6.92,2.27,2.22,2.22,0,1,1,0,4.44Z"/><path class="cls-1" d="M1107.23,208.21a.37.37,0,0,1-.42.42H1075a.42.42,0,1,1,0-.84q3.36,0,3.78-3.22a10.52,10.52,0,0,0-1.82-6.87l-22-36.57-21.86,36.57a9.8,9.8,0,0,0-1.89,6.87,3.46,3.46,0,0,0,3.85,3.22.37.37,0,0,1,.42.42c0,.28-.18.42-.56.42h-18.77a.42.42,0,1,1,0-.84,15.4,15.4,0,0,0,7.84-2.52,17.73,17.73,0,0,0,6.31-6l23.82-39.65-23.82-39.51a17.73,17.73,0,0,0-6.31-6,15.4,15.4,0,0,0-7.84-2.52.42.42,0,1,1,0-.84H1048a.42.42,0,0,1,0,.84c-2.25,0-3.51,1.08-3.79,3.22a10,10,0,0,0,1.82,6.73l18.64,31.25,18.77-31.25a10,10,0,0,0,1.83-6.73c-.28-2.14-1.55-3.22-3.79-3.22a.42.42,0,1,1,0-.84h18.92a.42.42,0,0,1,0,.84,15.46,15.46,0,0,0-7.85,2.52,17.78,17.78,0,0,0-6.3,6l-20.6,34.18,27,45a17.81,17.81,0,0,0,6.31,6,15.4,15.4,0,0,0,7.84,2.52A.37.37,0,0,1,1107.23,208.21Z"/><path class="cls-2" d="M1221.71,210.43a2.22,2.22,0,0,1,0-4.44c2.23,0,3.07-1,3.51-1.66a5,5,0,0,0,.12-4.48L1213,162.37h-20.24l-12.34,37.44a5.25,5.25,0,0,0,.25,4.52c.43.71,1.27,1.66,3.51,1.66a2.17,2.17,0,0,1,2.22,2.22,2.22,2.22,0,0,1-2.36,2.22h-18.78a2.22,2.22,0,0,1,0-4.44,10,10,0,0,0,6-2.17,10.22,10.22,0,0,0,3.91-5.13l29.55-89.8h9.19l29.69,89.79a10.21,10.21,0,0,0,3.91,5.14,9.82,9.82,0,0,0,5.87,2.17,2.22,2.22,0,1,1,0,4.44ZM1211.24,157l-8.32-25.38L1194.5,157Z"/><path class="cls-2" d="M1253.94,208.21q0,.42-.57.42h-31.66a.42.42,0,1,1,0-.84,5.46,5.46,0,0,0,5-2.52,6.72,6.72,0,0,0,.28-6l-12.75-38.67h-22.84l-12.75,38.67a7,7,0,0,0,.42,6,5.46,5.46,0,0,0,5.05,2.52.37.37,0,0,1,.42.42c0,.28-.19.42-.56.42h-18.78a.42.42,0,1,1,0-.84,11.84,11.84,0,0,0,7.08-2.52,12,12,0,0,0,4.55-6L1206,110.69h6.59l29.29,88.55a11.92,11.92,0,0,0,4.55,6,11.65,11.65,0,0,0,6.93,2.52Q1253.94,207.79,1253.94,208.21ZM1192,158.75h21.72l-10.79-32.93Z"/><path class="cls-2" d="M1315.16,212.25c-3.28,0-10.13-.31-20.35-.91s-16.43-.91-18.74-.91h-18v-2.22a2.17,2.17,0,0,1,2.22-2.22,6.81,6.81,0,0,0,6.75-6.75V120.08a6.81,6.81,0,0,0-6.75-6.75,2.22,2.22,0,0,1,0-4.44h23.26c2.48,0,8.09-.33,16.68-1,11.76-.88,14.18-1,15-1a51.18,51.18,0,0,1,20.48,4.21,54.62,54.62,0,0,1,16.8,11.23,52.77,52.77,0,0,1,15.39,37.22,55.83,55.83,0,0,1-6.31,26.49,48,48,0,0,1-18.47,19.06C1335,209.86,1325.62,212.25,1315.16,212.25Zm-29.86-12c1.38,1.15,4.33,2.69,10.61,4.22a79.29,79.29,0,0,0,18.36,2.26h.5a44.72,44.72,0,0,0,15.6-2.48,31.26,31.26,0,0,0,14-12.17,42.66,42.66,0,0,0,6.44-19.64,61.93,61.93,0,0,0-3.14-24c-3.6-10.44-9.25-19-16.77-25.53-7.21-6.22-14.82-9.38-22.59-9.38h-.64c-.37,0-4.84.15-11.12.35-5.23.17-9,.28-11.22.33Z"/><path class="cls-2" d="M1259.82,208.63v-.42a.37.37,0,0,1,.42-.42,8.62,8.62,0,0,0,8.55-8.55V120.08a8.62,8.62,0,0,0-8.55-8.55.42.42,0,1,1,0-.84h23.26q3.78,0,16.81-1t14.85-1a49.19,49.19,0,0,1,19.76,4.06,52.54,52.54,0,0,1,16.26,10.86A51,51,0,0,1,1366,159.59a53.76,53.76,0,0,1-6.1,25.64,46,46,0,0,1-17.79,18.36q-11.7,6.85-27,6.86-4.9,0-20.24-.91t-18.85-.91h-16.25Zm47.78-96.82-11.14.35q-10.73.36-13,.35v88.55q2.8,3,12,5.19a81.19,81.19,0,0,0,18.77,2.31A46.77,46.77,0,0,0,1331,206a32.86,32.86,0,0,0,14.85-12.89,44.37,44.37,0,0,0,6.73-20.46,63.24,63.24,0,0,0-3.23-24.66q-5.6-16.25-17.3-26.34T1307.6,111.81Z"/><path class="cls-2" d="M1403.26,210.43l-29.55-89.79a10.21,10.21,0,0,0-3.91-5.14,10,10,0,0,0-6-2.17,2.22,2.22,0,0,1,0-4.44h31.8a2.22,2.22,0,1,1,0,4.44c-2.25,0-3.08.92-3.52,1.61a5.41,5.41,0,0,0-.22,4.61l22.52,68.21,22.53-68.25a5.32,5.32,0,0,0-.24-4.57c-.43-.69-1.27-1.61-3.52-1.61a2.22,2.22,0,0,1,0-4.44h21.14v2.22a2.21,2.21,0,0,1-2.22,2.22h0a10,10,0,0,0-6,2.17,10.11,10.11,0,0,0-3.9,5.13l-29.7,89.8Z"/><path class="cls-2" d="M1452.48,110.69v.42c0,.28-.19.42-.56.42h.14a11.79,11.79,0,0,0-7.07,2.52,11.94,11.94,0,0,0-4.56,6l-29.28,88.55h-6.59l-29.14-88.55a12,12,0,0,0-4.56-6,11.83,11.83,0,0,0-7.07-2.52.42.42,0,1,1,0-.84h31.8a.42.42,0,0,1,0,.84,5.51,5.51,0,0,0-5,2.45q-1.54,2.46-.42,6.1l24.24,73.42,24.24-73.42q1.13-3.64-.42-6.1a5.52,5.52,0,0,0-5-2.45.42.42,0,1,1,0-.84h19.34Z"/><path class="cls-2" d="M1456.29,210.43v-2.22a2.17,2.17,0,0,1,2.22-2.22,6.79,6.79,0,0,0,6.74-6.75V120.08a6.81,6.81,0,0,0-6.74-6.75,2.22,2.22,0,0,1,0-4.44h31.8a2.22,2.22,0,1,1,0,4.44,6.81,6.81,0,0,0-6.75,6.75v79.16a6.83,6.83,0,0,0,6.75,6.75,2.22,2.22,0,1,1,0,4.44Z"/><path class="cls-2" d="M1458.08,208.63v-.42a.38.38,0,0,1,.43-.42,8.6,8.6,0,0,0,8.54-8.55V120.08a8.6,8.6,0,0,0-8.54-8.55.42.42,0,1,1,0-.84h31.8a.42.42,0,0,1,0,.84,8.62,8.62,0,0,0-8.55,8.55v79.16a8.62,8.62,0,0,0,8.55,8.55.42.42,0,0,1,0,.84h-32.23Z"/><path class="cls-2" d="M1548.88,212.25a65.84,65.84,0,0,1-15.85-2c-5.21-1.3-10-2.61-14.36-3.88a38.2,38.2,0,0,0-10.14-1.81,2.62,2.62,0,0,0-1.83.6,1.55,1.55,0,0,0-.58,1.24,2.17,2.17,0,0,1-2.22,2.22,2.22,2.22,0,0,1-2.22-2.36V172.76a2.29,2.29,0,0,1,4.58,0c0,4.63,2.56,9.58,7.61,14.71a64,64,0,0,0,19.56,13.28c7.72,3.48,15,5.24,21.61,5.24a33.71,33.71,0,0,0,8.65-1.06,24,24,0,0,0,6.91-3,21.55,21.55,0,0,0,5-4.52,19.17,19.17,0,0,0,4.23-12c0-14.91-11.79-22.16-36-22.16a87.82,87.82,0,0,1-14.53-1.14,56.65,56.65,0,0,1-13.17-3.91,25,25,0,0,1-10.47-8.3,21.85,21.85,0,0,1-4-13.11c0-8.43,4.15-15.6,12.33-21.3,8-5.56,18-8.38,29.83-8.38a67.34,67.34,0,0,1,15.9,1.94c5.2,1.27,9.89,2.57,13.94,3.89a31.46,31.46,0,0,0,9,1.87,2.46,2.46,0,0,0,1.78-.63,1.58,1.58,0,0,0,.62-1.21,2.22,2.22,0,0,1,4.44,0v33.63a2.22,2.22,0,0,1-4.44,0c0-3.52-1.44-7.26-4.27-11.13a49.61,49.61,0,0,0-11.16-10.88,66.78,66.78,0,0,0-15.21-8,45.14,45.14,0,0,0-15.9-3.18H1538a27.22,27.22,0,0,0-15.47,4.39c-4.32,2.89-6.42,6.64-6.42,11.47,0,10.57,9.47,15.71,29,15.71h.49a116.08,116.08,0,0,1,13,.71,67.41,67.41,0,0,1,13,2.88,46.48,46.48,0,0,1,11.66,5.47,27.2,27.2,0,0,1,8.33,9.07,26.05,26.05,0,0,1,3.33,13.23c0,10-4.23,18.55-12.55,25.55S1562.8,212.25,1548.88,212.25Z"/><path class="cls-2" d="M1503.48,136.75q0-11.77,11.56-19.83t28.8-8a65.42,65.42,0,0,1,15.48,1.89q7.77,1.89,13.8,3.85a32.86,32.86,0,0,0,9.53,2,4.2,4.2,0,0,0,3-1.12,3.38,3.38,0,0,0,1.19-2.52.42.42,0,0,1,.84,0v33.63a.42.42,0,0,1-.84,0q0-5.88-4.62-12.19a51.28,51.28,0,0,0-11.56-11.28,68.66,68.66,0,0,0-15.63-8.27,46.74,46.74,0,0,0-16.53-3.29,29.11,29.11,0,0,0-17,4.69q-7.23,4.84-7.22,13,0,17.66,31.25,17.51a112.21,112.21,0,0,1,12.75.7,65.75,65.75,0,0,1,12.68,2.8,44.65,44.65,0,0,1,11.21,5.26,25.12,25.12,0,0,1,7.77,8.47,24.15,24.15,0,0,1,3.09,12.33q0,14.16-11.91,24.17t-32.23,10a63.28,63.28,0,0,1-15.41-2q-7.86-2-14.3-3.85a39.37,39.37,0,0,0-10.64-1.89,4.41,4.41,0,0,0-3,1.05,3.33,3.33,0,0,0-1.19,2.59.37.37,0,0,1-.42.42c-.28,0-.42-.19-.42-.56V172.76c0-.28.16-.42.49-.42s.49.14.49.42q0,7.71,8.13,16a65.49,65.49,0,0,0,20.11,13.67q12,5.39,22.34,5.39a35.14,35.14,0,0,0,9.11-1.12,25.7,25.7,0,0,0,7.43-3.22,22.87,22.87,0,0,0,5.46-4.91,20.86,20.86,0,0,0,4.63-13.17q0-24-37.83-24a85.45,85.45,0,0,1-14.23-1.12,54.77,54.77,0,0,1-12.75-3.78,23.18,23.18,0,0,1-9.73-7.71A20,20,0,0,1,1503.48,136.75Z"/><path class="cls-2" d="M1656.14,212.25a52.68,52.68,0,0,1-37.21-89.88,54.55,54.55,0,0,1,16.81-11.23,51.87,51.87,0,0,1,40.94,0,52.27,52.27,0,0,1,28,28,51.3,51.3,0,0,1,4.21,20.47,52.51,52.51,0,0,1-52.73,52.66Zm-6.68-98.76a26.53,26.53,0,0,0-8.51,1.43,27.42,27.42,0,0,0-14.12,11.53,41.25,41.25,0,0,0-6.31,20,68.84,68.84,0,0,0,3.22,24.43c4.22,12.31,11.14,21.89,20.53,28.41,6.25,4.33,12.47,6.53,18.5,6.53h0a26.88,26.88,0,0,0,22.82-13,41.83,41.83,0,0,0,6.3-20,67.6,67.6,0,0,0-3.21-24.29c-4.23-12.31-11.14-21.89-20.54-28.41C1661.84,115.71,1655.55,113.49,1649.46,113.49Z"/><path class="cls-2" d="M1636.45,112.79a50.12,50.12,0,0,1,39.52,0,50.47,50.47,0,0,1,27,27,49.22,49.22,0,0,1,4.06,19.76,50.86,50.86,0,1,1-86.87-35.94A52.37,52.37,0,0,1,1636.45,112.79ZM1672,206a28.21,28.21,0,0,0,15.06-12.19,43.41,43.41,0,0,0,6.59-20.88A69.41,69.41,0,0,0,1690.4,148q-6.59-19.2-21.23-29.35t-28.79-5.4a29.1,29.1,0,0,0-15.07,12.26,43,43,0,0,0-6.58,20.81,69.93,69.93,0,0,0,3.29,25.08q6.59,19.2,21.23,29.35T1672,206Z"/><path class="cls-2" d="M1796.47,210.43a10.83,10.83,0,0,1-7.78-3.17,10.62,10.62,0,0,1-3.27-7.88V188.59c0-7-1.5-12.74-4.46-17.14-2.84-4.22-7.35-6.28-13.78-6.28h-25.8v34.07a6.81,6.81,0,0,0,6.75,6.75,2.22,2.22,0,0,1,0,4.44h-31.81a2.22,2.22,0,0,1,0-4.44,6.81,6.81,0,0,0,6.75-6.75V120.08a6.83,6.83,0,0,0-6.75-6.75,2.22,2.22,0,0,1,0-4.44h40.91c31.7,0,47.76,9.8,47.76,29.12a21.39,21.39,0,0,1-6.94,16.24,35.58,35.58,0,0,1-10.77,6.75,21.65,21.65,0,0,1,3.79,1.55,20.38,20.38,0,0,1,7.6,6.69,30,30,0,0,1,3.95,8.73,39.42,39.42,0,0,1,1.25,10.2c0,5,0,8.79-.14,11.17a9.13,9.13,0,0,0,.64,2.58,5.66,5.66,0,0,0,1.39,2,7.89,7.89,0,0,0,2.24,1.49,5.93,5.93,0,0,0,2.48.54,2.22,2.22,0,1,1,0,4.44Zm-35.17-50.82a27,27,0,0,0,16.57-5.1c4.51-3.38,7.17-8.09,8.13-14.39.79-5,.61-9.3-.56-12.74a14.16,14.16,0,0,0-5.79-7.69,30.57,30.57,0,0,0-9.79-4.1,56.71,56.71,0,0,0-12.63-1.28h-15.85v45.3Z"/><path class="cls-2" d="M1767.18,163.37h-27.6v35.87a8.6,8.6,0,0,0,8.55,8.55.42.42,0,0,1,0,.84h-31.81a.42.42,0,1,1,0-.84,8.6,8.6,0,0,0,8.55-8.55V120.08a8.6,8.6,0,0,0-8.55-8.55.42.42,0,0,1,0-.84h40.91q46,0,46,27.32a19.54,19.54,0,0,1-6.37,14.92q-6.37,6-17,8.62a24.79,24.79,0,0,1,10.44,2.59,18.52,18.52,0,0,1,6.94,6.1,27.51,27.51,0,0,1,3.71,8.2,37.43,37.43,0,0,1,1.19,9.73q0,7.71-.14,11.21a10.81,10.81,0,0,0,.77,3.23,7.65,7.65,0,0,0,1.82,2.66,10.07,10.07,0,0,0,2.74,1.82,7.62,7.62,0,0,0,3.22.7.42.42,0,0,1,0,.84h-14A9,9,0,0,1,1790,206a8.83,8.83,0,0,1-2.73-6.59V188.59q0-11.06-4.76-18.14T1767.18,163.37Zm-10-50.86h-17.65v48.9h21.72q10.37,0,17.65-5.46t8.83-15.56q1.26-8-.63-13.59a16,16,0,0,0-6.52-8.61,32.14,32.14,0,0,0-10.36-4.35A58.52,58.52,0,0,0,1757.23,112.51Z"/><path class="cls-2" d="M1868.21,212.25a65.78,65.78,0,0,1-15.85-2c-5.21-1.3-10-2.61-14.37-3.88a38.07,38.07,0,0,0-10.14-1.81,2.58,2.58,0,0,0-1.82.6,1.52,1.52,0,0,0-.58,1.24,2.18,2.18,0,0,1-2.22,2.22,2.21,2.21,0,0,1-2.22-2.36V172.76a2.29,2.29,0,0,1,4.58,0c0,4.63,2.56,9.58,7.61,14.71a63.73,63.73,0,0,0,19.56,13.28c7.72,3.48,15,5.24,21.61,5.24a33.69,33.69,0,0,0,8.64-1.06,23.72,23.72,0,0,0,6.91-3,21.15,21.15,0,0,0,5-4.52,19,19,0,0,0,4.23-12c0-14.91-11.78-22.16-36-22.16a87.7,87.7,0,0,1-14.52-1.14,56.65,56.65,0,0,1-13.17-3.91,25.06,25.06,0,0,1-10.48-8.3,21.91,21.91,0,0,1-4-13.11c0-8.43,4.15-15.6,12.33-21.3,8-5.56,18-8.38,29.82-8.38a67.36,67.36,0,0,1,15.91,1.94c5.2,1.27,9.89,2.57,13.93,3.89a31.46,31.46,0,0,0,9,1.87,2.42,2.42,0,0,0,1.78-.63,1.57,1.57,0,0,0,.63-1.21,2.22,2.22,0,0,1,4.44,0v33.63a2.22,2.22,0,0,1-4.44,0c0-3.52-1.44-7.26-4.28-11.13a49.4,49.4,0,0,0-11.16-10.88,66.36,66.36,0,0,0-15.21-8,45,45,0,0,0-15.89-3.18h-.55a27.23,27.23,0,0,0-15.48,4.39c-4.31,2.89-6.41,6.64-6.41,11.47,0,10.57,9.47,15.71,28.95,15.71h.48a116.26,116.26,0,0,1,13,.71,67.73,67.73,0,0,1,13,2.88,46.65,46.65,0,0,1,11.66,5.47,27.3,27.3,0,0,1,8.33,9.07,26.15,26.15,0,0,1,3.32,13.23c0,10-4.22,18.55-12.55,25.55S1882.12,212.25,1868.21,212.25Z"/><path class="cls-2" d="M1822.81,136.75q0-11.77,11.56-19.83t28.79-8a65.3,65.3,0,0,1,15.48,1.89q7.78,1.89,13.81,3.85a32.81,32.81,0,0,0,9.52,2,4.23,4.23,0,0,0,3-1.12,3.38,3.38,0,0,0,1.19-2.52.42.42,0,1,1,.84,0v33.63a.42.42,0,1,1-.84,0q0-5.88-4.63-12.19A50.87,50.87,0,0,0,1890,123.09a68.38,68.38,0,0,0-15.62-8.27,46.74,46.74,0,0,0-16.53-3.29,29.14,29.14,0,0,0-17,4.69q-7.21,4.84-7.21,13,0,17.66,31.24,17.51a112.21,112.21,0,0,1,12.75.7,65.59,65.59,0,0,1,12.68,2.8,44.48,44.48,0,0,1,11.21,5.26,25.24,25.24,0,0,1,7.78,8.47,24.24,24.24,0,0,1,3.08,12.33q0,14.16-11.91,24.17t-32.22,10a63.3,63.3,0,0,1-15.42-2q-7.85-2-14.29-3.85a39.49,39.49,0,0,0-10.65-1.89,4.38,4.38,0,0,0-3,1.05,3.29,3.29,0,0,0-1.19,2.59.37.37,0,0,1-.42.42c-.28,0-.42-.19-.42-.56V172.76c0-.28.16-.42.49-.42s.49.14.49.42q0,7.71,8.13,16A65.44,65.44,0,0,0,1852,202.4q12,5.39,22.35,5.39a35.14,35.14,0,0,0,9.11-1.12,25.64,25.64,0,0,0,7.42-3.22,23.11,23.11,0,0,0,5.47-4.91,20.93,20.93,0,0,0,4.62-13.17q0-24-37.83-24a85.33,85.33,0,0,1-14.22-1.12,54.49,54.49,0,0,1-12.75-3.78,23.21,23.21,0,0,1-9.74-7.71A20,20,0,0,1,1822.81,136.75Z"/><path class="cls-1" d="M461.19,287.2l-.14-.42c-2.15-6.41-4-11.62-5.37-15.48l-6.58-17.8-5.63,14-3.33,8.74c-.88,2.3-1.57,4.18-2.09,5.64l-1.86,5.34h-4.08l-2.94-13.51-6-25.7c-.64-2.73-1.14-3-1.16-3a12.74,12.74,0,0,0-3.2-.62l-.2,0-.58-.57V241.9l.6-.67.29,0c3,.16,5.64.25,7.93.25,1.72,0,4.25-.09,7.53-.25l.27,0,.65.65v1.88l-.59.6h-.24a23.17,23.17,0,0,0-4,.32c-.15,0-.27.11-.27.45a35.18,35.18,0,0,0,.61,4c.42,2.3.79,4.2,1.12,5.64l4.48,19.75,7-17.41c2-5,4-10.41,6-15.94l.14-.4h2.87l.14.42c1.65,5.19,3.38,10.31,5.14,15.19l6.71,18.6,4.79-16.84c.54-1.94,1.19-4.45,2-7.7a41.92,41.92,0,0,0,1.17-5.38c0-.32-.11-.4-.33-.46a29.29,29.29,0,0,0-4.36-.28h-.27l-.57-.65v-1.86l.61-.62.27,0c3.51.16,5.65.25,6.38.25s2.84-.09,6.47-.25l.26,0,.62.62v1.94l-.62.54h-.21a7,7,0,0,0-2.15.28,2.23,2.23,0,0,0-.81.64,11.44,11.44,0,0,0-1.14,3l-1.81,5.81-3.22,10.53c-.46,1.52-1.31,4.62-2.52,9.22l-3.59,13.39Z"/><path class="cls-1" d="M432.6,286.59l-2.84-13-6-25.71q-.72-3.06-1.5-3.42a14,14,0,0,0-3.37-.67l-.25-.25v-1.38l.25-.28q4.5.26,8,.25,2.6,0,7.56-.25l.28.28v1.38l-.25.25a24.93,24.93,0,0,0-4.17.34,1,1,0,0,0-.7,1,39,39,0,0,0,.63,4.14c.41,2.33.79,4.22,1.12,5.67l4.9,21.65,7.72-19.21q3-7.62,6-16h2q2.49,7.83,5.15,15.21L464.37,277l5.31-18.65c.55-2,1.21-4.53,2-7.72a43.19,43.19,0,0,0,1.18-5.53,1,1,0,0,0-.78-1,28.91,28.91,0,0,0-4.5-.3l-.25-.28V242.1l.25-.25q5.31.26,6.41.25c.66,0,2.83-.08,6.49-.25l.25.25v1.41l-.25.22a7.37,7.37,0,0,0-2.37.33,2.58,2.58,0,0,0-1,.81,12.79,12.79,0,0,0-1.25,3.2L474,253.88l-3.22,10.53q-.69,2.28-2.53,9.25l-3.47,12.93h-3.19q-3.24-9.69-5.37-15.5l-7.12-19.27-6.22,15.43L439.57,276c-.88,2.31-1.57,4.2-2.09,5.65l-1.72,4.94Z"/><path class="cls-1" d="M515.75,286.22v-2.06l.59-.51h.21a32.37,32.37,0,0,0,3.82-.3,2.17,2.17,0,0,0,1-.33s.19-.19.36-1a24.33,24.33,0,0,0,.2-4.18l.07-6.59v-6.53c-5.84-.11-10-.17-12.36-.17s-6.51.06-12.14.17v6.53l0,6.09a42.15,42.15,0,0,0,.18,4.47,2.28,2.28,0,0,0,.31,1.07,1.76,1.76,0,0,0,.85.39,22.34,22.34,0,0,0,4,.34H503l.65.48v2.12l-.62.61h-.26c-6.56-.2-8.49-.25-8.95-.25s-2.35,0-8.91.25h-.26l-.62-.61v-2.12l.64-.48h.19a32.07,32.07,0,0,0,3.79-.3,2.43,2.43,0,0,0,1-.34,1.94,1.94,0,0,0,.35-.94,28.67,28.67,0,0,0,.22-4.19l0-6.59V256.82l-.06-6.09c0-2.33-.08-3.85-.17-4.52a2.27,2.27,0,0,0-.3-1.06,1.79,1.79,0,0,0-.83-.37,25.42,25.42,0,0,0-4-.32h-.22l-.62-.54V241.8l.64-.56H485c6.56.2,8.47.25,8.91.25.69,0,3.7-.09,8.95-.25h.24l.64.56v2.11l-.63.54h-.21c-1.41,0-2.52.1-3.28.18a3.41,3.41,0,0,0-1.44.38c-.07,0-.31.26-.43,1.18a27,27,0,0,0-.17,3.43l-.06,7.19v3.78c4.32.11,8.48.17,12.36.17,5.18,0,9.26,0,12.14-.16v-3.79l-.07-6.09a42.83,42.83,0,0,0-.18-4.51,2.55,2.55,0,0,0-.3-1.08,1.66,1.66,0,0,0-.81-.36,25.8,25.8,0,0,0-4.06-.32h-.24l-.56-.57v-2.06l.58-.58h.26c5.29.16,8.3.25,8.95.25s3.72-.09,9-.25h.24l.63.56v2.11l-.62.54h-.21c-1.44,0-2.55.1-3.32.18a3.29,3.29,0,0,0-1.43.38c-.07,0-.31.26-.42,1.17a34.31,34.31,0,0,0-.18,3.45l-.06,7.18v14.46l.06,6.09a42.15,42.15,0,0,0,.18,4.47,2.28,2.28,0,0,0,.31,1.07,1.64,1.64,0,0,0,.83.39,22.45,22.45,0,0,0,4,.34h.19l.64.48v2.12l-.61.61h-.26c-6.59-.2-8.5-.25-9-.25s-2.39,0-8.95.25h-.28Z"/><path class="cls-1" d="M484.93,241.85q8,.26,8.93.25t9-.25l.25.22v1.56l-.25.22c-1.44,0-2.55.11-3.33.19a4,4,0,0,0-1.7.47,2.17,2.17,0,0,0-.7,1.61,26.31,26.31,0,0,0-.18,3.51l-.06,7.19v4.37q6.84.19,13,.19,8.37,0,12.74-.19v-4.37l-.06-6.1a40.87,40.87,0,0,0-.19-4.59,3.15,3.15,0,0,0-.43-1.37,2.15,2.15,0,0,0-1.13-.56,27.09,27.09,0,0,0-4.19-.35l-.21-.22v-1.56l.21-.22c5.34.17,8.32.25,9,.25s3.7-.08,9-.25l.25.22v1.56l-.25.22c-1.46,0-2.58.11-3.36.19a4,4,0,0,0-1.7.47,2.13,2.13,0,0,0-.69,1.61,32.19,32.19,0,0,0-.19,3.51l-.06,7.19v14.46l.06,6.09a40.18,40.18,0,0,0,.19,4.56,2.87,2.87,0,0,0,.45,1.38,2.35,2.35,0,0,0,1.13.58,26.08,26.08,0,0,0,4.17.36l.25.18V286l-.25.25q-8-.25-9-.25c-.67,0-3.65.08-9,.25l-.21-.25v-1.57l.21-.18a32.83,32.83,0,0,0,3.91-.32,2.64,2.64,0,0,0,1.28-.48,2.58,2.58,0,0,0,.53-1.27,24.91,24.91,0,0,0,.22-4.31l.06-6.59v-7.12q-9.24-.2-13-.19t-12.75.19v7.12l0,6.09a42.85,42.85,0,0,0,.19,4.56,3.11,3.11,0,0,0,.45,1.38,2.39,2.39,0,0,0,1.14.58,26.46,26.46,0,0,0,4.16.36l.25.18V286l-.25.25q-8-.25-9-.25t-8.93.25l-.25-.25v-1.57l.25-.18a32.1,32.1,0,0,0,3.87-.32,2.79,2.79,0,0,0,1.3-.48,2.49,2.49,0,0,0,.53-1.27,29.55,29.55,0,0,0,.23-4.31l0-6.59V256.82l-.06-6.1c0-2.37-.08-3.9-.17-4.59a2.78,2.78,0,0,0-.44-1.37,2.19,2.19,0,0,0-1.14-.56,26.64,26.64,0,0,0-4.15-.35l-.25-.22v-1.56Z"/><path class="cls-1" d="M541.74,286.25v-1.5l.46-.58.12-.06c1.24-.63,1.71-.9,1.89-1a39.3,39.3,0,0,0,.33-5.1c.11-3.53.17-6.14.17-8V258.57l0-7.09c0-1.53,0-2.78-.07-3.74a10.64,10.64,0,0,0-.2-2,1.61,1.61,0,0,0-.24-.64,1,1,0,0,0-.4-.24,7.16,7.16,0,0,0-1.4-.26l-2.55-.2-.61-.53V241.8l.63-.56h.24c7.06.12,11.67.18,13.7.18,6.83,0,13-.06,18.23-.18h.32l.51.71-.07.27a53.14,53.14,0,0,0-1.14,9.29v.18l-.48.64h-2.06l-.69-.61,0-.31a3.75,3.75,0,0,0,0-.44,31.52,31.52,0,0,0-.34-4.63,17.74,17.74,0,0,0-5-1c-2.3-.18-4-.27-5.18-.27-1.5,0-3.42.1-5.72.3l-.11,4.46-.1,5.71-.08,5.75c2,.11,3.9.16,5.6.16,1.88,0,3.48-.06,4.75-.18a9,9,0,0,0,2-.31.79.79,0,0,0,.22-.44,9.6,9.6,0,0,0,.28-1.92l.14-2.15.59-.59h1.94l.61.61v.26q-.06,3.41-.15,6.84l.16,7.26-.61.61h-1.94l-.58-.58-.24-2.08a25.3,25.3,0,0,0-.39-2.51.77.77,0,0,0-.34-.4,5.5,5.5,0,0,0-2-.4c-1.23-.12-2.94-.18-5.1-.18-1.1,0-2.77,0-5,.13-.08,1.76-.13,4.5-.13,8.17,0,4,.05,7,.13,9h5.17c5,0,8.19-.06,9.44-.18a11.79,11.79,0,0,0,3.2-.77c.19-.54.46-1.55.82-3,.42-1.71.66-2.79.72-3.2l0-.26.68-.48h1.92l.69.6-.08.35a42.7,42.7,0,0,0-.53,4.61c-.18,2.19-.26,4.1-.26,5.67v.22l-.56.64h-.29c-3.93-.12-9.18-.18-15.6-.18l-8.5-.07c-2,0-4,.09-6.14.25l-.27,0Z"/><path class="cls-1" d="M539.82,242.07l.25-.22q10.71.19,13.71.19,10.25,0,18.25-.19l.15.22a53.53,53.53,0,0,0-1.15,9.4l-.19.25h-1.53l-.28-.25a4.6,4.6,0,0,0,0-.5,30.5,30.5,0,0,0-.41-5.06,17.13,17.13,0,0,0-5.45-1.14c-2.32-.17-4.07-.26-5.23-.26q-2.47,0-6.31.34l-.13,5-.09,5.72-.1,6.34c2.25.12,4.33.19,6.22.19s3.52-.07,4.81-.19a8.65,8.65,0,0,0,2.27-.39,1.41,1.41,0,0,0,.5-.78,12.18,12.18,0,0,0,.29-2.05l.13-1.94.25-.25h1.44l.24.25c0,2.27-.09,4.56-.15,6.85l.15,7-.24.25h-1.44l-.25-.25-.22-1.88a24.51,24.51,0,0,0-.41-2.61,1.36,1.36,0,0,0-.57-.73,6.17,6.17,0,0,0-2.33-.5c-1.25-.13-3-.19-5.16-.19-1.2,0-3,0-5.53.16-.1,1.75-.15,4.66-.15,8.75q0,6.56.15,9.65h5.75q7.59,0,9.5-.19a12.27,12.27,0,0,0,3.62-.91,31.06,31.06,0,0,0,.92-3.32c.43-1.74.68-2.83.74-3.27l.31-.22h1.5l.25.22a43.14,43.14,0,0,0-.55,4.69c-.17,2.23-.26,4.13-.26,5.72l-.22.25q-6-.19-15.62-.19l-8.5-.06q-3,0-6.18.25l-.25-.25v-1l.25-.32a15.89,15.89,0,0,0,2.11-1.17c.17-.15.32-2,.43-5.47s.17-6.15.17-8V258.57l0-7.1c0-1.54,0-2.79-.06-3.76a11,11,0,0,0-.22-2.08,2.19,2.19,0,0,0-.36-.87,1.41,1.41,0,0,0-.65-.42,6.74,6.74,0,0,0-1.55-.3l-2.37-.19-.25-.22Z"/><path class="cls-1" d="M578.54,286.25v-2.12l.64-.48h.19a31.83,31.83,0,0,0,3.78-.3,2.45,2.45,0,0,0,1-.34s.19-.19.34-.94a25.68,25.68,0,0,0,.22-4.19l0-6.59V256.82l-.07-6.09c0-2.34-.07-3.86-.16-4.52a2.27,2.27,0,0,0-.3-1.06,1.79,1.79,0,0,0-.83-.37,25.64,25.64,0,0,0-4-.32h-.21l-.62-.54V241.8l.64-.56h.24c3.78.16,6.76.25,8.88.25,2.36,0,5.55-.08,9.51-.22,1.49,0,2.56-.06,3.24-.06,5.49,0,9.13,1,11.14,3.05a10,10,0,0,1,3,7.24,11.34,11.34,0,0,1-1.45,5.44,12.85,12.85,0,0,1-4.26,4.54,19.5,19.5,0,0,1-6.69,2.6q.91,1.25,2.59,3.45l4.44,5.87q2.16,2.91,4.62,6.14c2.16,2.83,2.83,3.39,3,3.5a3.24,3.24,0,0,0,1,.44,8.84,8.84,0,0,0,1.53.09h.25l.6.6v2l-.66.67-.3,0a26.86,26.86,0,0,0-3.48-.19c-1.46,0-3.07.07-4.8.19l-.32,0-.2-.24c-1.43-1.75-3.72-4.82-6.8-9.12-3.55-5-7.24-9.62-11-13.86l-.23-.26.57-1.74.46,0c1.07.06,1.9.09,2.5.09,3.44,0,6.15-.83,8.07-2.45a8.24,8.24,0,0,0,2.85-6.72,6.72,6.72,0,0,0-2.51-5.75,11.38,11.38,0,0,0-7.07-2,20.17,20.17,0,0,0-5.72.8c-.11.58-.32,2.86-.32,11.22v14.46l0,6.09a42.15,42.15,0,0,0,.18,4.47,2.28,2.28,0,0,0,.31,1.07,1.69,1.69,0,0,0,.84.39,22.68,22.68,0,0,0,4,.34h.19l.64.48v2.12l-.6.6h-.25l-5.52-.18c-1.47-.05-2.62-.07-3.45-.07-.65,0-3.65.09-8.92.25h-.26Z"/><path class="cls-1" d="M579.15,242.07l.25-.22c3.81.17,6.77.25,8.9.25q3.53,0,9.53-.22c1.48,0,2.55-.06,3.22-.06,5.26,0,8.84,1,10.71,2.88a9.37,9.37,0,0,1,2.81,6.81,10.74,10.74,0,0,1-1.37,5.15,12.28,12.28,0,0,1-4.06,4.33,20.13,20.13,0,0,1-7.41,2.7q.88,1.21,3.16,4.22l4.43,5.87c1.44,1.94,3,4,4.63,6.14a19.9,19.9,0,0,0,3.18,3.66,3.87,3.87,0,0,0,1.24.51,10.56,10.56,0,0,0,1.64.09l.25.25v1.47l-.28.28a30.42,30.42,0,0,0-3.56-.18c-1.48,0-3.1.06-4.85.18q-2.15-2.62-6.78-9.09-5.37-7.5-11-13.9l.31-1c1.08.06,1.93.1,2.53.1q5.4,0,8.47-2.6a8.9,8.9,0,0,0,3.06-7.18,7.4,7.4,0,0,0-2.75-6.24,12,12,0,0,0-7.44-2.1,20.8,20.8,0,0,0-6.18.9q-.46.69-.47,11.72v14.46l0,6.09a40.18,40.18,0,0,0,.19,4.56,2.87,2.87,0,0,0,.45,1.38,2.39,2.39,0,0,0,1.14.58,26.32,26.32,0,0,0,4.16.36l.25.18V286l-.25.25-5.5-.19c-1.48,0-2.64-.06-3.47-.06-.65,0-3.62.08-8.93.25l-.25-.25v-1.57l.25-.18a32.53,32.53,0,0,0,3.87-.32,2.83,2.83,0,0,0,1.3-.48,2.58,2.58,0,0,0,.53-1.27,29.55,29.55,0,0,0,.23-4.31l0-6.59V256.82l-.06-6.1c0-2.37-.08-3.9-.17-4.59a2.88,2.88,0,0,0-.44-1.37,2.23,2.23,0,0,0-1.14-.56,26.78,26.78,0,0,0-4.15-.35l-.25-.22Z"/><path class="cls-1" d="M626,286.25v-1.5l.47-.58.11-.06c1.24-.63,1.71-.9,1.89-1a39.3,39.3,0,0,0,.33-5.1c.11-3.53.17-6.14.17-8V258.57l0-7.09c0-1.53,0-2.78-.06-3.74a10.4,10.4,0,0,0-.21-2,1.61,1.61,0,0,0-.24-.64,1,1,0,0,0-.4-.24,7.16,7.16,0,0,0-1.4-.26l-2.55-.2-.61-.53V241.8l.63-.56h.24c7.06.12,11.67.18,13.7.18,6.83,0,13-.06,18.23-.18h.32l.51.71-.07.27a53.14,53.14,0,0,0-1.14,9.29v.18l-.48.64h-2.06l-.69-.61,0-.31a3.75,3.75,0,0,0,0-.44,30.2,30.2,0,0,0-.34-4.63,17.74,17.74,0,0,0-5-1c-2.3-.18-4-.27-5.18-.27-1.5,0-3.42.1-5.72.3l-.11,4.46-.09,5.71-.09,5.75c2,.11,3.9.16,5.6.16,1.89,0,3.48-.06,4.75-.18a9,9,0,0,0,2-.31.84.84,0,0,0,.23-.44,11,11,0,0,0,.27-1.92l.14-2.15.59-.59h1.94l.61.61v.26q-.06,3.41-.15,6.84l.16,7.26-.61.61h-1.94l-.58-.58-.24-2.08a25.3,25.3,0,0,0-.39-2.51.77.77,0,0,0-.34-.4,5.5,5.5,0,0,0-2-.4c-1.23-.12-2.94-.18-5.09-.18-1.11,0-2.77,0-5,.13-.08,1.76-.12,4.5-.12,8.17,0,4,0,7,.12,9h5.17c5,0,8.19-.06,9.44-.18a12,12,0,0,0,3.21-.77c.18-.54.45-1.55.81-3,.42-1.71.66-2.79.72-3.2l0-.26.68-.48h1.92l.69.6-.07.35a39.59,39.59,0,0,0-.54,4.61c-.17,2.19-.26,4.1-.26,5.67v.22l-.56.64h-.29c-3.93-.12-9.18-.18-15.6-.18l-8.5-.07c-2,0-4,.09-6.13.25l-.28,0Z"/><path class="cls-1" d="M624.07,242.07l.25-.22Q635,242,638,242q10.25,0,18.25-.19l.15.22a53.53,53.53,0,0,0-1.15,9.4l-.19.25h-1.53l-.28-.25a4.6,4.6,0,0,0,0-.5,30.5,30.5,0,0,0-.41-5.06,17.13,17.13,0,0,0-5.45-1.14c-2.32-.17-4.07-.26-5.23-.26q-2.47,0-6.31.34l-.13,5-.09,5.72-.09,6.34c2.24.12,4.32.19,6.21.19s3.52-.07,4.81-.19a8.65,8.65,0,0,0,2.27-.39,1.36,1.36,0,0,0,.5-.78,12.18,12.18,0,0,0,.29-2.05l.13-1.94.25-.25h1.44l.25.25c0,2.27-.1,4.56-.16,6.85l.16,7-.25.25h-1.44l-.25-.25-.22-1.88a24.51,24.51,0,0,0-.41-2.61,1.36,1.36,0,0,0-.57-.73,6.11,6.11,0,0,0-2.33-.5c-1.25-.13-3-.19-5.15-.19-1.21,0-3.06,0-5.53.16-.11,1.75-.16,4.66-.16,8.75q0,6.56.16,9.65h5.74q7.59,0,9.5-.19a12.27,12.27,0,0,0,3.62-.91,32.78,32.78,0,0,0,.93-3.32c.42-1.74.67-2.83.73-3.27l.31-.22h1.5l.25.22a41.33,41.33,0,0,0-.54,4.69c-.18,2.23-.27,4.13-.27,5.72l-.22.25q-6-.19-15.62-.19L633,286q-3,0-6.18.25l-.25-.25v-1l.25-.32a15.89,15.89,0,0,0,2.11-1.17c.17-.15.32-2,.43-5.47s.18-6.15.18-8V258.57l0-7.1c0-1.54,0-2.79-.06-3.76a11,11,0,0,0-.22-2.08,2.19,2.19,0,0,0-.36-.87,1.41,1.41,0,0,0-.65-.42,6.63,6.63,0,0,0-1.55-.3l-2.37-.19-.25-.22Z"/><path class="cls-1" d="M698.86,286.85c-5.24-.16-8.25-.25-8.94-.25s-3.67.09-8.92.25h-.26l-.61-.61v-2.12l.64-.48H681a31.89,31.89,0,0,0,3.8-.3,2.08,2.08,0,0,0,1-.34,1.91,1.91,0,0,0,.36-.94,24.92,24.92,0,0,0,.22-4.13l0-6.65V256.82l-.06-6.09c0-2.34-.08-3.86-.17-4.52a2.37,2.37,0,0,0-.29-1.06,1.79,1.79,0,0,0-.83-.37,25.64,25.64,0,0,0-4-.32h-.22l-.61-.54V241.8l.63-.56H681c8.61.12,14,.18,15.46.18,5,0,10.08-.06,15.23-.18h.23l.73.64-.12.38a14.92,14.92,0,0,0-.63,3.4c-.1,1.32-.22,3.19-.34,5.6v.23l-.6.59h-2l-.49-.56,0-.13a22.86,22.86,0,0,1-.3-2.51,23.31,23.31,0,0,0-.41-2.74,29.77,29.77,0,0,0-8.45-1c-1.56,0-3.4.11-5.45.32-.19,1.82-.29,5.62-.29,11.32v4.81l4.8.05a44.2,44.2,0,0,0,4.5-.2,9.59,9.59,0,0,0,2.07-.33.74.74,0,0,0,.29-.39,10.61,10.61,0,0,0,.35-2.1l.21-1.88.52-.6h2.14l.6.66-.23,7.09q0,1.15.09,3.39c.09,1.75.13,3.05.13,4v.27l-.66.59h-2.07l-.54-.62-.13-2.86a10.62,10.62,0,0,0-.29-2.14.86.86,0,0,0-.38-.56,9.14,9.14,0,0,0-2-.35,50.41,50.41,0,0,0-5.21-.19c-1.73,0-3.12,0-4.15.07v5.76l0,6.09c0,2.24.09,3.73.19,4.43.12.92.29,1.11.3,1.12a1.94,1.94,0,0,0,.85.38,22.54,22.54,0,0,0,4,.34h.19l.64.48v2.12l-.61.61Z"/><path class="cls-1" d="M692.92,264.94v6.34l0,6.09c0,2.27.08,3.78.18,4.52a3,3,0,0,0,.46,1.44,2.6,2.6,0,0,0,1.14.56,26.28,26.28,0,0,0,4.15.36l.25.18V286l-.25.25c-5.29-.17-8.27-.25-9-.25s-3.65.08-8.94.25l-.25-.25v-1.57l.25-.18a31.93,31.93,0,0,0,3.89-.32,2.61,2.61,0,0,0,1.28-.5,2.4,2.4,0,0,0,.53-1.25,26.58,26.58,0,0,0,.24-4.24l0-6.66V256.82l-.06-6.1c0-2.37-.08-3.9-.17-4.59a2.88,2.88,0,0,0-.44-1.37,2.23,2.23,0,0,0-1.14-.56,26.82,26.82,0,0,0-4.16-.35l-.25-.22v-1.56l.25-.22q13.24.19,15.47.19c4.95,0,10-.06,15.24-.19l.25.22a15.6,15.6,0,0,0-.65,3.55c-.11,1.32-.22,3.19-.35,5.6l-.25.25h-1.47l-.21-.25c0-.14-.14-.94-.29-2.4a21.58,21.58,0,0,0-.5-3.16,29.4,29.4,0,0,0-9-1.09,56.34,56.34,0,0,0-6,.38,118.14,118.14,0,0,0-.34,11.87v5.4q4,.06,5.4.06a42.68,42.68,0,0,0,4.56-.2,9.31,9.31,0,0,0,2.28-.39,1.22,1.22,0,0,0,.58-.7,10.42,10.42,0,0,0,.39-2.27l.19-1.68.22-.25h1.59l.25.28-.22,6.84c0,.79,0,1.94.1,3.44.08,1.7.12,3,.12,4l-.28.25h-1.56l-.22-.25-.13-2.65a10.42,10.42,0,0,0-.31-2.28,1.36,1.36,0,0,0-.72-.94A9.39,9.39,0,0,0,703,265q-1.73-.18-5.28-.18C695.56,264.85,694,264.88,692.92,264.94Z"/><path class="cls-1" d="M717.08,286.25v-2.12l.64-.48h.19a32.07,32.07,0,0,0,3.79-.3,2.28,2.28,0,0,0,1-.34s.19-.19.34-.94a27.57,27.57,0,0,0,.23-4.19l0-6.59V256.82l-.06-6.09c0-2.34-.08-3.86-.17-4.52a2.27,2.27,0,0,0-.3-1.06,1.79,1.79,0,0,0-.83-.37,25.47,25.47,0,0,0-4-.32h-.21l-.62-.54V241.8l.64-.56,4.14.13c2.55.08,4.23.13,5,.13s3.72-.09,9-.25h.24l.64.56v2.11l-.63.54h-.21c-1.41,0-2.52.1-3.28.18a3.41,3.41,0,0,0-1.44.38c-.07,0-.31.26-.43,1.18a27.27,27.27,0,0,0-.17,3.43l-.06,7.19v14.46l0,6.09a42.15,42.15,0,0,0,.18,4.47,2.28,2.28,0,0,0,.31,1.07,1.76,1.76,0,0,0,.85.39,22.34,22.34,0,0,0,4,.34h.19l.65.48v2.12l-.61.6h-.25l-5.52-.18c-1.47-.05-2.62-.07-3.45-.07-.65,0-3.65.09-8.91.25h-.27Z"/><path class="cls-1" d="M717.94,241.85l3.9.13c2.56.08,4.24.12,5,.12s3.7-.08,9-.25l.25.22v1.56l-.25.22c-1.44,0-2.55.11-3.33.19a4,4,0,0,0-1.7.47,2.17,2.17,0,0,0-.7,1.61,26.31,26.31,0,0,0-.18,3.51l-.06,7.19v14.46l0,6.09a42.85,42.85,0,0,0,.19,4.56,2.87,2.87,0,0,0,.45,1.38,2.39,2.39,0,0,0,1.14.58,26.46,26.46,0,0,0,4.16.36l.25.18V286l-.25.25-5.5-.19c-1.48,0-2.64-.06-3.47-.06q-1,0-8.93.25l-.25-.25v-1.57l.25-.18a32.31,32.31,0,0,0,3.87-.32,2.79,2.79,0,0,0,1.3-.48,2.49,2.49,0,0,0,.53-1.27,29.55,29.55,0,0,0,.23-4.31l0-6.59V256.82l-.07-6.1c0-2.37-.08-3.9-.17-4.59a2.78,2.78,0,0,0-.44-1.37,2.19,2.19,0,0,0-1.14-.56,26.78,26.78,0,0,0-4.15-.35l-.25-.22v-1.56Z"/><path class="cls-1" d="M784.32,287.88a50.92,50.92,0,0,0-5.34-1.29l-.2,0-2.36-2.79-6.66-8.13-20.1-25.11v22.23c0,.95,0,2.66.11,5.11a37.61,37.61,0,0,0,.25,4.36,2.13,2.13,0,0,0,.27.81,2.1,2.1,0,0,0,.79.35,13.39,13.39,0,0,0,3.26.26h.25l.6.6v2l-.64.64-.3,0a43.69,43.69,0,0,0-5.17-.22c-3.09,0-5.82.08-8.11.22l-.28,0-.65-.66v-2l.65-.58h.23a21.54,21.54,0,0,0,3-.21c.85-.14,1-.35,1.08-.39a2.39,2.39,0,0,0,.32-1.11c.07-.62.14-2.08.21-4.33s.11-3.87.11-4.85V247.51a3.46,3.46,0,0,0-.45-2,2,2,0,0,0-1.22-.74,21.45,21.45,0,0,0-3.29-.22h-.25l-.6-.6V242l.59-.67h.29c2.85.1,4.75.16,5.63.16,2.08,0,3.81-.06,5.14-.16l.33,0,10.16,13.19,14.65,18.36c1.42,1.78,2.87,3.51,4.32,5.15V255.41c0-.75,0-2.34-.1-4.78s-.16-3.95-.26-4.57a1.75,1.75,0,0,0-.35-1,2.48,2.48,0,0,0-1.17-.37,20.86,20.86,0,0,0-2.83-.2H776l-.61-.6V242l.6-.67.3,0c1.66.1,4.08.16,7.18.16,2.82,0,4.9-.06,6.17-.16l.27,0,.66.66v1.93l-.6.61h-.25a20,20,0,0,0-3.08.23c-.84.15-1,.36-1,.38a3.24,3.24,0,0,0-.31,1.14c-.07.59-.14,2-.21,4.26s-.11,3.89-.11,4.88v14.84l0,8.59.14,9.32Z"/><path class="cls-1" d="M740.93,286.22l-.28-.29V284.5l.28-.25a22.36,22.36,0,0,0,3-.22,2.29,2.29,0,0,0,1.47-.63,2.88,2.88,0,0,0,.44-1.4c.07-.65.14-2.11.22-4.38s.11-3.89.11-4.87V247.51a3.89,3.89,0,0,0-.58-2.36,2.57,2.57,0,0,0-1.58-1,20.38,20.38,0,0,0-3.4-.23l-.25-.25v-1.47l.25-.28c2.87.1,4.76.15,5.65.15,2.11,0,3.83,0,5.19-.15l10,12.93,14.66,18.37q2.65,3.35,5.4,6.34V255.41c0-.75,0-2.35-.11-4.79s-.16-4-.26-4.66a2.3,2.3,0,0,0-.55-1.33,3,3,0,0,0-1.47-.51,22.26,22.26,0,0,0-2.92-.21l-.25-.25v-1.43l.25-.28c1.69.1,4.09.15,7.22.15q4.27,0,6.21-.15l.28.28v1.43l-.25.25a21.27,21.27,0,0,0-3.18.24,2.05,2.05,0,0,0-1.41.67,3.63,3.63,0,0,0-.39,1.38c-.07.6-.15,2-.22,4.31s-.11,3.9-.11,4.9v14.84l0,8.59c0,2.81.08,5.64.12,8.47a48.66,48.66,0,0,0-5.4-1.31l-2.22-2.63-6.66-8.12-21.18-26.46v24c0,1,0,2.67.11,5.12a38.17,38.17,0,0,0,.27,4.47,2.46,2.46,0,0,0,.4,1.08,2.4,2.4,0,0,0,1.08.55,15.62,15.62,0,0,0,3.42.28l.25.25V286l-.25.25a43.11,43.11,0,0,0-5.25-.22Q744.43,286,740.93,286.22Z"/><path class="cls-1" d="M841.22,286.85c-2.18-.18-4.17-.28-5.92-.28q-5.16.17-10.35.28h-.26l-.61-.61v-2.13l.6-.6h.24a23,23,0,0,0,4.23-.28c.36-.1.42-.25.42-.49a4.52,4.52,0,0,0-.39-1.59L825.49,272H808.21L805,279.64a8.61,8.61,0,0,0-.86,2.92c0,.2.06.41.48.6a13.12,13.12,0,0,0,4,.36h.23l.65.58v2.15l-.62.62-.27,0c-2.66-.16-5-.25-7-.25-2.28,0-4.59.09-6.9.25l-.25,0-.68-.6V284.1l.65-.58h.23a13,13,0,0,0,2.77-.21,1.91,1.91,0,0,0,.88-.63,21.62,21.62,0,0,0,2-3.84l3.28-7.12,8.5-19.24q2.4-5.64,4.77-11.3l.16-.37h2.83l15.28,35.92c.51,1.16,1.11,2.45,1.79,3.85a9.86,9.86,0,0,0,1.28,2.29,1.87,1.87,0,0,0,.74.44,9.14,9.14,0,0,0,2.39.21h.25l.6.6v2.13l-.63.62Zm-17.45-18.74-6.93-16.66-7.05,16.66Z"/><path class="cls-1" d="M794.63,286.25l-.28-.25v-1.63l.28-.25a13.89,13.89,0,0,0,2.94-.23,2.65,2.65,0,0,0,1.17-.81,27.33,27.33,0,0,0,2.08-4l3.27-7.12,8.5-19.25q2.42-5.66,4.78-11.3h2l13.34,31.36,1.78,4.19c.52,1.18,1.12,2.48,1.8,3.87a11.85,11.85,0,0,0,1.41,2.47,2.71,2.71,0,0,0,1,.58,10.79,10.79,0,0,0,2.58.23l.25.25V286l-.25.25q-3.32-.28-6-.28l-10.37.28-.25-.25v-1.63l.25-.25a24.54,24.54,0,0,0,4.38-.3,1,1,0,0,0,.87-1.07,5.08,5.08,0,0,0-.44-1.81l-3.84-9.53H807.81l-3.4,8a9.32,9.32,0,0,0-.91,3.16,1.23,1.23,0,0,0,.84,1.16,14.38,14.38,0,0,0,4.25.4l.29.25V286l-.25.25c-2.69-.17-5-.25-7.06-.25Q798.12,286,794.63,286.25Zm14.25-17.53h15.8l-7.84-18.84Z"/><path class="cls-1" d="M889.69,287.88a50.92,50.92,0,0,0-5.34-1.29l-.2,0-2.36-2.79-6.66-8.13L855,250.52v22.23c0,.95,0,2.66.11,5.11a37.85,37.85,0,0,0,.25,4.36,1.85,1.85,0,0,0,.28.81s.14.16.79.35a13.19,13.19,0,0,0,3.25.26H860l.6.6v2l-.64.64-.3,0a43.69,43.69,0,0,0-5.17-.22c-3.09,0-5.82.08-8.11.22l-.28,0-.65-.66v-2l.65-.58h.23a21.54,21.54,0,0,0,3-.21c.85-.14,1-.35,1.08-.39a2.39,2.39,0,0,0,.32-1.11c.07-.62.14-2.07.21-4.33s.11-3.87.11-4.85V247.51a3.41,3.41,0,0,0-.45-2,2,2,0,0,0-1.22-.74,21.45,21.45,0,0,0-3.29-.22h-.25l-.6-.6V242l.59-.67H846c2.85.1,4.75.16,5.63.16,2.08,0,3.81-.06,5.14-.16l.33,0,10.17,13.19L882,272.87c1.42,1.78,2.86,3.51,4.32,5.15V255.41c0-.75,0-2.34-.1-4.78s-.16-3.95-.26-4.57a1.75,1.75,0,0,0-.35-1,2.48,2.48,0,0,0-1.17-.37,20.86,20.86,0,0,0-2.83-.2h-.25l-.6-.6V242l.6-.68.3,0c1.66.1,4.08.16,7.18.16,2.82,0,4.9-.06,6.17-.16l.27,0,.66.66v1.94l-.6.6H895a20,20,0,0,0-3.08.23c-.84.15-1,.36-1,.38a3,3,0,0,0-.31,1.14c-.07.59-.14,2-.21,4.26s-.11,3.89-.11,4.88v14.84l0,8.59.14,9.32Z"/><path class="cls-1" d="M846.3,286.22l-.28-.29V284.5l.28-.25a22.36,22.36,0,0,0,3-.22,2.27,2.27,0,0,0,1.47-.63,2.88,2.88,0,0,0,.44-1.4c.07-.65.15-2.11.22-4.38s.11-3.89.11-4.87V247.51a3.89,3.89,0,0,0-.58-2.36,2.54,2.54,0,0,0-1.58-1A20.29,20.29,0,0,0,846,244l-.25-.25v-1.47L846,242c2.87.1,4.76.15,5.65.15,2.11,0,3.83,0,5.19-.15l10,12.93,14.66,18.37q2.65,3.35,5.4,6.34V255.41c0-.75,0-2.35-.11-4.79s-.16-4-.26-4.66a2.3,2.3,0,0,0-.55-1.33,3,3,0,0,0-1.47-.51,22.26,22.26,0,0,0-2.92-.21l-.25-.25v-1.43l.25-.28c1.69.1,4.09.15,7.22.15q4.28,0,6.21-.15l.28.28v1.43l-.25.25a21.27,21.27,0,0,0-3.18.24,2.05,2.05,0,0,0-1.41.67,3.63,3.63,0,0,0-.39,1.38c-.07.6-.14,2-.22,4.31s-.11,3.9-.11,4.9v14.84l0,8.59c0,2.81.08,5.64.12,8.47a48.66,48.66,0,0,0-5.4-1.31l-2.22-2.63-6.66-8.12-21.18-26.46v24c0,1,0,2.67.11,5.12a38.17,38.17,0,0,0,.27,4.47,2.59,2.59,0,0,0,.4,1.08,2.4,2.4,0,0,0,1.08.55,15.62,15.62,0,0,0,3.42.28l.25.25V286l-.25.25a43.11,43.11,0,0,0-5.25-.22Q849.8,286,846.3,286.22Z"/><path class="cls-1" d="M926.21,287.76c-7.64,0-13.94-2.21-18.73-6.56S900.24,271,900.24,264a22.78,22.78,0,0,1,3.61-12.78,22.42,22.42,0,0,1,9.53-8.18,31.51,31.51,0,0,1,13.21-2.7,39.72,39.72,0,0,1,8.34.89,35.67,35.67,0,0,1,6.9,2.13l.15.07.51.72-.13.31c-.45,1.1-.89,4-1.3,8.48l0,.19-.53.61h-2l-.59-.59-.31-5.27a16.66,16.66,0,0,0-5.11-2.56,22,22,0,0,0-6.55-1,19,19,0,0,0-9.18,2.2,15.27,15.27,0,0,0-6.25,6.31,21.5,21.5,0,0,0-2.24,10.22,21.11,21.11,0,0,0,2.64,10.67,18,18,0,0,0,7.18,7,22.23,22.23,0,0,0,10.69,2.46,25.25,25.25,0,0,0,5.22-.52,19.44,19.44,0,0,0,4.14-1.27,19,19,0,0,0,3.16-1.84l.47-.34,1.11,1.38-1.41,3.45-.2.1A32.86,32.86,0,0,1,926.21,287.76Z"/><path class="cls-1" d="M942.21,280.72l-1.19,2.9a32.1,32.1,0,0,1-14.81,3.53q-11.28,0-18.32-6.4t-7-16.75a22,22,0,0,1,3.52-12.45,21.72,21.72,0,0,1,9.28-8,30.71,30.71,0,0,1,13-2.64,39.14,39.14,0,0,1,8.21.87,34.45,34.45,0,0,1,6.78,2.09l.22.32c-.48,1.16-.93,4.05-1.34,8.65l-.22.25h-1.47l-.25-.25-.31-5.31a16.91,16.91,0,0,0-5.52-2.83,22.52,22.52,0,0,0-6.73-1,19.58,19.58,0,0,0-9.47,2.26,15.79,15.79,0,0,0-6.49,6.56,22,22,0,0,0-2.31,10.51,21.58,21.58,0,0,0,2.71,11,18.61,18.61,0,0,0,7.42,7.25,22.82,22.82,0,0,0,11,2.53,26.6,26.6,0,0,0,5.35-.53,20.77,20.77,0,0,0,4.26-1.31,19.16,19.16,0,0,0,3.26-1.91Z"/><path class="cls-1" d="M949.41,286.25v-1.5l.46-.58.12-.06a20.38,20.38,0,0,0,1.88-1,37.75,37.75,0,0,0,.33-5.1c.12-3.45.17-6.13.17-8V258.57l0-7.09c0-1.53,0-2.78-.06-3.74a11.62,11.62,0,0,0-.2-2,1.82,1.82,0,0,0-.24-.64,1,1,0,0,0-.4-.24,7.35,7.35,0,0,0-1.4-.26l-2.56-.2-.6-.53V241.8l.63-.56h.23c7.07.12,11.68.18,13.71.18,6.82,0,13-.06,18.23-.18H980l.51.71-.08.27a53.49,53.49,0,0,0-1.13,9.29v.18l-.48.64h-2.07l-.69-.61,0-.31a3.75,3.75,0,0,0,0-.44,30.18,30.18,0,0,0-.35-4.63,17.66,17.66,0,0,0-4.95-1c-2.3-.18-4.05-.27-5.19-.27-1.5,0-3.42.1-5.71.3l-.11,4.46-.1,5.71-.09,5.75c2,.11,3.9.16,5.61.16,1.88,0,3.48-.06,4.75-.18a9,9,0,0,0,2-.31,1,1,0,0,0,.22-.43,10.87,10.87,0,0,0,.28-1.93l.13-2.15.59-.59h1.94l.61.61v.26c0,2.27-.1,4.55-.16,6.84l.16,7.26-.61.61h-1.94l-.57-.58-.25-2.08a24,24,0,0,0-.38-2.51.82.82,0,0,0-.34-.4,5.71,5.71,0,0,0-2-.4c-1.22-.12-2.94-.18-5.09-.18-1.1,0-2.77,0-4.95.13-.09,1.77-.13,4.51-.13,8.17,0,3.95,0,7,.13,9h5.17c5,0,8.19-.06,9.44-.18a11.88,11.88,0,0,0,3.2-.77c.18-.54.45-1.55.81-3,.42-1.71.67-2.79.73-3.2l0-.26.69-.48h1.92l.68.6-.07.35a44,44,0,0,0-.54,4.61c-.17,2.2-.26,4.11-.26,5.67v.22l-.56.64h-.28c-3.93-.12-9.18-.18-15.6-.18l-8.51-.07c-2,0-4,.09-6.13.25l-.28,0Z"/><path class="cls-1" d="M947.48,242.07l.25-.22q10.72.19,13.72.19,10.24,0,18.24-.19l.16.22a53.32,53.32,0,0,0-1.16,9.4l-.18.25H977l-.28-.25a4.6,4.6,0,0,0,0-.5,30.52,30.52,0,0,0-.4-5.06,17.13,17.13,0,0,0-5.45-1.14c-2.33-.17-4.07-.26-5.24-.26-1.64,0-3.75.11-6.31.34l-.12,5-.1,5.72-.09,6.34c2.25.12,4.32.19,6.22.19s3.52-.07,4.81-.19a8.53,8.53,0,0,0,2.26-.39,1.31,1.31,0,0,0,.5-.78,11,11,0,0,0,.3-2.05l.12-1.94.25-.25h1.44l.25.25c0,2.27-.09,4.56-.15,6.85l.15,7-.25.25h-1.44l-.25-.25-.21-1.88c-.19-1.46-.33-2.33-.41-2.61a1.38,1.38,0,0,0-.58-.73,6.11,6.11,0,0,0-2.33-.5c-1.25-.13-3-.19-5.15-.19-1.21,0-3,0-5.53.16-.1,1.75-.16,4.66-.16,8.75,0,4.37.06,7.59.16,9.65h5.75q7.59,0,9.5-.19a12.34,12.34,0,0,0,3.62-.91,33.82,33.82,0,0,0,.92-3.32c.43-1.74.67-2.83.74-3.27l.31-.22h1.5l.25.22a43.14,43.14,0,0,0-.55,4.69c-.18,2.23-.27,4.13-.27,5.72l-.21.25q-6-.19-15.62-.19l-8.5-.06q-3,0-6.19.25L950,286v-1l.25-.32a15.89,15.89,0,0,0,2.11-1.17c.18-.15.32-2,.44-5.47s.17-6.15.17-8V258.57l0-7.1c0-1.54,0-2.79-.06-3.76a12,12,0,0,0-.22-2.08,2.53,2.53,0,0,0-.36-.87,1.51,1.51,0,0,0-.66-.42,6.51,6.51,0,0,0-1.54-.3l-2.38-.19-.25-.22Z"/><path class="cls-1" d="M1030.37,287.48l-.16-.37c-1.19-2.74-2.13-4.84-2.87-6.42l-13.78-28.62v19.18q0,3.06.08,7c.07,3.56.27,4.23.33,4.35a1.37,1.37,0,0,0,.77.65,16.8,16.8,0,0,0,4.23.33h.24l.6.6v2l-.65.64-2.26-.1c-2-.11-3.82-.16-5.29-.16-.66,0-3.16.09-7.44.25h-.26l-.62-.61v-2l.58-.66h.27a19.36,19.36,0,0,0,4.08-.29,1.35,1.35,0,0,0,.83-.58,4.38,4.38,0,0,0,.32-1.92c0-1.05.07-4.1.14-9.58v-14.3q0-2.83-.08-6.91c-.07-3.66-.26-4.35-.32-4.47a1.33,1.33,0,0,0-.75-.65,17.38,17.38,0,0,0-4.22-.33h-.25l-.6-.6v-2l.66-.66.27,0c1.42.1,3.36.16,5.77.16s4.27-.06,6-.16l.43,0,.16.4c1.75,4,3.44,7.71,5,10.93l11.29,23.18L1043,254.68c2.88-6,4.84-10.34,5.83-13l.15-.41.45,0c2,.1,3.95.16,5.87.16,1.73,0,3.8-.06,6.16-.16h.24l.67.59V244l-.62.55h-.22a21.77,21.77,0,0,0-4.1.32,1.35,1.35,0,0,0-.83.56,4.45,4.45,0,0,0-.3,2c0,1.12-.09,4.3-.18,9.52v14.39c0,2.09,0,4.46.1,7.05.08,3.54.27,4.21.33,4.34a1.26,1.26,0,0,0,.75.62,17.81,17.81,0,0,0,4.23.35h.22l.62.54v2.08l-.67.6-.25,0c-3.37-.18-6.34-.28-8.84-.28-1.69,0-4.61.1-8.69.28h-.24l-.67-.59v-2l.6-.6h.24a19.89,19.89,0,0,0,4.1-.32,1.34,1.34,0,0,0,.83-.55,4.81,4.81,0,0,0,.32-2c0-1.14.09-4.33.16-9.48V251.06l-9.63,20.14c-2.69,5.61-5.07,11-7.08,15.9l-.15.38Z"/><path class="cls-1" d="M1061.47,242l.29.25v1.53l-.25.22a22.39,22.39,0,0,0-4.27.34,1.94,1.94,0,0,0-1.17.83,5.22,5.22,0,0,0-.39,2.26c0,1.13-.09,4.3-.17,9.53v14.4q0,3.13.09,7.06A18.94,18.94,0,0,0,1056,283a1.85,1.85,0,0,0,1.08.94,19.41,19.41,0,0,0,4.44.39l.25.22V286l-.29.25q-5.09-.28-8.87-.28-2.56,0-8.71.28l-.28-.25v-1.5l.25-.25a22,22,0,0,0,4.26-.35,1.93,1.93,0,0,0,1.17-.82,5.61,5.61,0,0,0,.41-2.3q.06-1.71.15-9.5V248.38l-10.78,22.56q-4,8.46-7.09,15.93h-1.22q-1.74-4-2.87-6.43l-14.93-31v21.84c0,2,0,4.39.08,7a17.86,17.86,0,0,0,.39,4.61,1.94,1.94,0,0,0,1.09.94,18.47,18.47,0,0,0,4.44.38l.25.25V286l-.29.28-2-.1q-3.09-.15-5.31-.15-1,0-7.46.25l-.25-.25v-1.5l.25-.28a22,22,0,0,0,4.25-.32,1.93,1.93,0,0,0,1.17-.84,5,5,0,0,0,.4-2.22c0-1.08.08-4.28.14-9.59V256.94q0-2.83-.07-6.92a20,20,0,0,0-.38-4.71,1.91,1.91,0,0,0-1.08-1,18.1,18.1,0,0,0-4.43-.37l-.25-.25v-1.5l.28-.28c1.44.1,3.37.15,5.81.15q3.43,0,6-.15,2.63,6.06,5,11l11.84,24.31,10.68-22.28q4.35-9,5.84-13,3,.15,5.91.15Q1057.92,242.1,1061.47,242Z"/><path class="cls-1" d="M1068.65,286.25v-1.5l.46-.58.12-.06a20.38,20.38,0,0,0,1.88-1,37.75,37.75,0,0,0,.33-5.1c.11-3.45.17-6.13.17-8V258.57l0-7.09c0-1.53,0-2.78-.06-3.74a11.62,11.62,0,0,0-.2-2,2.11,2.11,0,0,0-.24-.64,1,1,0,0,0-.4-.24,7.55,7.55,0,0,0-1.4-.26l-2.56-.2-.61-.53V241.8l.64-.56h.23c7.06.12,11.67.18,13.71.18,6.82,0,13-.06,18.23-.18h.32l.51.71-.08.27a53.49,53.49,0,0,0-1.13,9.29v.18l-.48.64H1096l-.69-.61,0-.31a3.75,3.75,0,0,0,0-.44,30.18,30.18,0,0,0-.35-4.63,17.66,17.66,0,0,0-5-1c-2.3-.18-4-.27-5.19-.27-1.5,0-3.42.1-5.72.3l-.11,4.46-.09,5.71-.09,5.75c2,.11,3.9.16,5.61.16,1.88,0,3.48-.06,4.75-.18a9,9,0,0,0,2-.31,1,1,0,0,0,.22-.43,10.33,10.33,0,0,0,.27-1.93l.14-2.15.59-.59h1.94l.61.61v.26c0,2.27-.1,4.55-.16,6.84l.16,7.26-.61.61h-1.94l-.58-.58-.24-2.08a24,24,0,0,0-.38-2.51.88.88,0,0,0-.34-.4,5.71,5.71,0,0,0-2.05-.4c-1.22-.12-2.94-.18-5.09-.18-1.1,0-2.77,0-5,.13-.09,1.77-.13,4.51-.13,8.17,0,3.95,0,7,.13,9H1084c5,0,8.19-.06,9.44-.18a11.88,11.88,0,0,0,3.2-.77c.18-.54.45-1.55.81-3,.42-1.71.66-2.79.72-3.2l0-.26.68-.48h1.92l.69.6-.07.35a44,44,0,0,0-.54,4.61c-.17,2.2-.26,4.11-.26,5.67v.22l-.56.64h-.28c-3.93-.12-9.18-.18-15.61-.18l-8.5-.07c-2,0-4,.09-6.13.25l-.28,0Z"/><path class="cls-1" d="M1066.72,242.07l.25-.22q10.71.19,13.72.19,10.24,0,18.24-.19l.16.22a53.32,53.32,0,0,0-1.16,9.4l-.19.25h-1.53l-.28-.25a4.6,4.6,0,0,0,0-.5,30.52,30.52,0,0,0-.4-5.06,17.19,17.19,0,0,0-5.45-1.14c-2.33-.17-4.07-.26-5.24-.26-1.64,0-3.75.11-6.31.34l-.12,5-.1,5.72-.09,6.34c2.25.12,4.32.19,6.22.19s3.52-.07,4.81-.19a8.53,8.53,0,0,0,2.26-.39,1.31,1.31,0,0,0,.5-.78,11,11,0,0,0,.3-2.05l.12-1.94.25-.25h1.44l.25.25c0,2.27-.09,4.56-.16,6.85l.16,7-.25.25h-1.44l-.25-.25-.21-1.88c-.19-1.46-.33-2.33-.41-2.61a1.38,1.38,0,0,0-.58-.73,6.11,6.11,0,0,0-2.33-.5c-1.25-.13-3-.19-5.15-.19-1.21,0-3,0-5.53.16-.11,1.75-.16,4.66-.16,8.75q0,6.56.16,9.65H1084c5.06,0,8.22-.06,9.5-.19a12.34,12.34,0,0,0,3.62-.91,33.82,33.82,0,0,0,.92-3.32c.43-1.74.67-2.83.73-3.27l.32-.22h1.5l.25.22a43.14,43.14,0,0,0-.55,4.69c-.18,2.23-.27,4.13-.27,5.72l-.21.25q-6-.19-15.63-.19l-8.49-.06q-3,0-6.19.25l-.25-.25v-1l.25-.32a15.89,15.89,0,0,0,2.11-1.17c.18-.15.32-2,.44-5.47s.17-6.15.17-8V258.57l0-7.1c0-1.54,0-2.79-.06-3.76a13.07,13.07,0,0,0-.22-2.08,2.53,2.53,0,0,0-.36-.87,1.51,1.51,0,0,0-.66-.42,6.63,6.63,0,0,0-1.54-.3l-2.38-.19-.25-.22Z"/><path class="cls-1" d="M1108.94,286.25v-1.5l.47-.58.11-.06c1.24-.63,1.71-.9,1.89-1a37.75,37.75,0,0,0,.33-5.1c.11-3.45.17-6.13.17-8V258.57l0-7.09c0-1.53,0-2.78-.06-3.74a11.62,11.62,0,0,0-.2-2,1.7,1.7,0,0,0-.25-.64.88.88,0,0,0-.4-.24,7.16,7.16,0,0,0-1.4-.26l-2.55-.2-.61-.53V241.8l.63-.56h.24c7.06.12,11.67.18,13.7.18,6.83,0,13-.06,18.23-.18h.32l.51.71-.07.27a53.28,53.28,0,0,0-1.14,9.29v.18l-.48.64h-2.06l-.69-.61,0-.31c0-.17,0-.31,0-.44a30.2,30.2,0,0,0-.34-4.63,17.74,17.74,0,0,0-5-1c-2.31-.18-4-.27-5.19-.27-1.5,0-3.42.1-5.72.3l-.11,4.46-.09,5.71-.09,5.75c2,.11,3.9.16,5.6.16,1.89,0,3.49-.06,4.76-.18a8.72,8.72,0,0,0,2-.31.83.83,0,0,0,.23-.43,11.37,11.37,0,0,0,.27-1.93l.14-2.15.59-.59h1.94l.61.61v.26q-.06,3.41-.15,6.84l.16,7.26-.61.61h-1.94l-.58-.58-.24-2.08a21.9,21.9,0,0,0-.39-2.51.77.77,0,0,0-.34-.4,5.5,5.5,0,0,0-2-.4c-1.23-.12-2.94-.18-5.09-.18-1.11,0-2.77,0-5,.13-.08,1.77-.12,4.51-.12,8.17,0,3.95,0,7,.13,9h5.16c5,0,8.19-.06,9.44-.18a11.86,11.86,0,0,0,3.21-.77c.18-.54.45-1.55.81-3,.42-1.71.66-2.79.72-3.2l0-.26.68-.48h1.92l.69.6-.07.35a44,44,0,0,0-.54,4.61c-.17,2.2-.26,4.11-.26,5.67v.22l-.56.64h-.29c-3.92-.12-9.17-.18-15.6-.18l-8.5-.07c-2,0-4,.09-6.13.25l-.28,0Z"/><path class="cls-1" d="M1107,242.07l.25-.22Q1118,242,1121,242q10.24,0,18.25-.19l.15.22a53.53,53.53,0,0,0-1.15,9.4l-.19.25h-1.53l-.28-.25a4.6,4.6,0,0,0,0-.5,30.5,30.5,0,0,0-.41-5.06,17.07,17.07,0,0,0-5.45-1.14c-2.32-.17-4.06-.26-5.23-.26q-2.48,0-6.31.34l-.13,5-.09,5.72-.09,6.34c2.25.12,4.32.19,6.21.19s3.52-.07,4.81-.19a8.55,8.55,0,0,0,2.27-.39,1.31,1.31,0,0,0,.5-.78,13,13,0,0,0,.3-2.05l.12-1.94.25-.25h1.44l.25.25c0,2.27-.1,4.56-.16,6.85l.16,7-.25.25H1133l-.25-.25-.22-1.88a25.83,25.83,0,0,0-.4-2.61,1.43,1.43,0,0,0-.58-.73,6.11,6.11,0,0,0-2.33-.5c-1.25-.13-3-.19-5.15-.19-1.21,0-3.06,0-5.53.16-.11,1.75-.16,4.66-.16,8.75q0,6.56.16,9.65h5.74c5.07,0,8.23-.06,9.5-.19a12.41,12.41,0,0,0,3.63-.91c.18-.47.49-1.58.92-3.32s.67-2.83.73-3.27l.31-.22h1.5l.25.22a43.86,43.86,0,0,0-.54,4.69c-.18,2.23-.27,4.13-.27,5.72l-.22.25q-6-.19-15.62-.19L1116,286c-2,0-4,.08-6.18.25l-.25-.25v-1l.25-.32a15.89,15.89,0,0,0,2.11-1.17c.17-.15.32-2,.43-5.47s.18-6.15.18-8V258.57l0-7.1c0-1.54,0-2.79-.07-3.76a11,11,0,0,0-.22-2.08,2.37,2.37,0,0,0-.35-.87,1.51,1.51,0,0,0-.66-.42,6.63,6.63,0,0,0-1.55-.3l-2.37-.19-.25-.22Z"/><path class="cls-1" d="M1173.54,286.85c-5.29-.16-8.29-.25-8.92-.25s-3.65.09-8.88.25h-.26l-.62-.61v-2.12l.65-.48h.19a31.44,31.44,0,0,0,3.79-.3,2.26,2.26,0,0,0,1-.34s.2-.19.37-.95a24.33,24.33,0,0,0,.2-4.18l.06-6.59V253.07c0-.23,0-1.73-.23-7.55h-4.07c-1.9,0-3.56,0-4.93.13-1.66.09-1.94.36-2,.37a10.78,10.78,0,0,0-.51,3.08l-.33,3.09-.62.61h-1.93l-.61-.6V252c0-5-.14-8.27-.28-9.76l0-.28.68-.68.27,0c3.58.16,9.66.25,18,.25,8.56,0,14.65-.09,18.09-.25l.27,0,.68.68,0,.28c-.19,1.85-.28,5.13-.28,9.75v.26l-.6.6h-2l-.55-.63-.37-3.06a27,27,0,0,0-.37-2.74.91.91,0,0,0-.23-.42,6,6,0,0,0-1.73-.28c-1.12-.1-2.39-.15-3.78-.15h-5.32c-.15,4.31-.23,6.85-.23,7.55v18.21l.06,6.09c0,2.32.08,3.83.17,4.5.11.84.26,1,.28,1.05a2,2,0,0,0,.86.38,22.64,22.64,0,0,0,4,.34h.21l.6.51v2.06l-.56.64Z"/><path class="cls-1" d="M1182.74,241.85l.29.28q-.29,2.82-.29,9.81l-.25.25H1181l-.25-.28-.35-2.87a23.51,23.51,0,0,0-.39-2.83,1.33,1.33,0,0,0-.45-.75,5.71,5.71,0,0,0-2-.39c-1.15-.1-2.43-.16-3.84-.16h-5.91q-.25,7.07-.25,8.16v18.21l.06,6.09a44.74,44.74,0,0,0,.18,4.58,2.72,2.72,0,0,0,.43,1.38,2.6,2.6,0,0,0,1.14.56,26.72,26.72,0,0,0,4.19.36l.22.18V286l-.22.25q-8-.25-8.94-.25t-8.9.25l-.25-.25v-1.57l.25-.18a31.93,31.93,0,0,0,3.89-.32,2.73,2.73,0,0,0,1.28-.48,2.56,2.56,0,0,0,.55-1.27,26,26,0,0,0,.22-4.31l.06-6.59V253.07q0-.49-.25-8.16h-4.66c-1.91,0-3.57.05-5,.13s-2.21.3-2.42.64a10.92,10.92,0,0,0-.61,3.36l-.32,2.87-.28.28h-1.43l-.25-.25c0-5-.14-8.29-.29-9.81l.29-.28q5.43.26,18.08.25Q1177.54,242.1,1182.74,241.85Z"/><path class="cls-1" d="M1199,287.76a26.94,26.94,0,0,1-11.6-2.37l-.2-.1-.36-.77,0-.18c.2-1.28.36-4.35.46-9.1V275l.6-.6h2l.6.6v.24A26.51,26.51,0,0,0,1191,280c.09.32.42.84,1.45,1.55A11.59,11.59,0,0,0,1196,283a18,18,0,0,0,4.61.6,13.53,13.53,0,0,0,5.7-1.16,8.86,8.86,0,0,0,3.85-3.35,9.29,9.29,0,0,0,1.37-5,8,8,0,0,0-.64-3.34,5.61,5.61,0,0,0-1.78-2.22,8.32,8.32,0,0,0-2.7-1.28c-1.05-.29-2.66-.62-4.77-1s-3.74-.64-4.93-.91a17.47,17.47,0,0,1-3.64-1.3,10,10,0,0,1-3.11-2.28,10.21,10.21,0,0,1-2-3.38,12.19,12.19,0,0,1-.74-4.26,13.05,13.05,0,0,1,4.26-10c2.81-2.58,6.61-3.89,11.31-3.89a30,30,0,0,1,6,.68,24.62,24.62,0,0,1,6,2l.16.08.43.74-.06.24a42.83,42.83,0,0,0-.82,8.06v.26l-.65.58h-2.08l-.63-.55v-.27c0-2.46-.1-4-.18-4.65,0-.11-.21-.72-2.53-1.94a11.86,11.86,0,0,0-5.62-1.37,11.16,11.16,0,0,0-4.71,1,6.62,6.62,0,0,0-3.22,3.07,9.4,9.4,0,0,0-1.12,4.37,6.46,6.46,0,0,0,.66,3,5.57,5.57,0,0,0,1.67,2,7.52,7.52,0,0,0,2.46,1.13c1,.27,2.83.6,5.47,1a33.83,33.83,0,0,1,8.2,1.93,9.58,9.58,0,0,1,4.3,3.75,11.33,11.33,0,0,1,1.61,6.14,14.4,14.4,0,0,1-5.64,11.55A20.74,20.74,0,0,1,1199,287.76Z"/><path class="cls-1" d="M1187.93,275.25l.25-.25h1.53l.25.25a28.24,28.24,0,0,0,.42,4.89,4,4,0,0,0,1.69,1.87,11.7,11.7,0,0,0,3.78,1.61,18.36,18.36,0,0,0,4.76.63,14.06,14.06,0,0,0,6-1.22,9.33,9.33,0,0,0,4.11-3.58,9.8,9.8,0,0,0,1.47-5.29,8.53,8.53,0,0,0-.7-3.6,6.14,6.14,0,0,0-2-2.45,9.07,9.07,0,0,0-2.89-1.37,48.55,48.55,0,0,0-4.84-1q-3.13-.5-4.89-.9a16.86,16.86,0,0,1-3.52-1.25,9.61,9.61,0,0,1-2.92-2.14,9.88,9.88,0,0,1-1.87-3.19,11.5,11.5,0,0,1-.71-4,12.42,12.42,0,0,1,4.07-9.57q4-3.74,10.9-3.73a28.87,28.87,0,0,1,5.92.67,24.39,24.39,0,0,1,5.83,2l.21.38a43,43,0,0,0-.84,8.18l-.28.25H1212l-.25-.22q-.06-3.75-.18-4.71c-.09-.65-1-1.45-2.85-2.41a12.41,12.41,0,0,0-5.9-1.44,11.89,11.89,0,0,0-5,1.06,7.34,7.34,0,0,0-3.5,3.35,10,10,0,0,0-1.18,4.65,7.28,7.28,0,0,0,.71,3.27,6.2,6.2,0,0,0,1.86,2.25,8,8,0,0,0,2.66,1.23,56.29,56.29,0,0,0,5.54,1,33,33,0,0,1,8,1.89,9,9,0,0,1,4,3.51,10.73,10.73,0,0,1,1.51,5.82,13.76,13.76,0,0,1-5.42,11.09,20.09,20.09,0,0,1-13.13,4.43,26.21,26.21,0,0,1-11.34-2.31l-.19-.41C1187.67,283.12,1187.82,280.06,1187.93,275.25Z"/><path class="cls-1" d="M1266,286.85c-5.28-.16-8.28-.25-8.91-.25s-3.66.09-8.89.25h-.26l-.61-.61v-2.12l.64-.48h.19a31.68,31.68,0,0,0,3.8-.3,2.42,2.42,0,0,0,1-.34,2,2,0,0,0,.36-.95,24.33,24.33,0,0,0,.2-4.18l.07-6.59V253.07c0-.23,0-1.73-.23-7.55h-4.07c-1.9,0-3.56,0-4.93.13-1.66.09-2,.36-2,.37a11.34,11.34,0,0,0-.51,3.08l-.33,3.09-.61.61H1239l-.6-.6V252c0-5-.13-8.27-.28-9.76l0-.28.67-.68.27,0c3.59.16,9.66.25,18.06.25,8.56,0,14.64-.09,18.09-.25l.27,0,.67.68,0,.28c-.18,1.85-.28,5.13-.28,9.75v.26l-.6.6h-2l-.56-.63-.37-3.06a23.9,23.9,0,0,0-.37-2.74.83.83,0,0,0-.23-.42,6,6,0,0,0-1.72-.28c-1.12-.1-2.4-.15-3.79-.15h-5.32c-.15,4.31-.23,6.85-.23,7.55v18.21l.07,6.09c0,2.32.07,3.83.16,4.5.11.84.27,1,.29,1.05a1.94,1.94,0,0,0,.85.38,22.69,22.69,0,0,0,4,.34h.21l.59.51v2.06l-.56.64Z"/><path class="cls-1" d="M1275.18,241.85l.28.28q-.29,2.82-.28,9.81l-.25.25h-1.47l-.25-.28-.34-2.87c-.17-1.54-.3-2.49-.39-2.83a1.4,1.4,0,0,0-.46-.75,5.65,5.65,0,0,0-2-.39c-1.14-.1-2.42-.16-3.84-.16h-5.9q-.26,7.07-.25,8.16v18.21l.06,6.09c0,2.36.08,3.88.17,4.58a2.71,2.71,0,0,0,.44,1.38,2.54,2.54,0,0,0,1.14.56,26.4,26.4,0,0,0,4.18.36l.22.18V286l-.22.25q-8-.25-8.93-.25t-8.9.25l-.25-.25v-1.57l.25-.18a31.91,31.91,0,0,0,3.88-.32,2.69,2.69,0,0,0,1.28-.48,2.47,2.47,0,0,0,.55-1.27,24.91,24.91,0,0,0,.22-4.31l.06-6.59V253.07q0-.49-.25-8.16h-4.65c-1.92,0-3.57.05-5,.13s-2.2.3-2.42.64a11.26,11.26,0,0,0-.61,3.36l-.31,2.87-.28.28h-1.44l-.25-.25c0-5-.14-8.29-.28-9.81l.28-.28q5.43.26,18.09.25Q1270,242.1,1275.18,241.85Z"/><path class="cls-1" d="M1278.6,286.25v-2.12l.64-.48h.19a31.83,31.83,0,0,0,3.78-.3,2.38,2.38,0,0,0,1-.34,2,2,0,0,0,.34-.94,28.09,28.09,0,0,0,.22-4.19l0-6.59V256.82l-.07-6.09c0-2.34-.07-3.86-.16-4.52a2.27,2.27,0,0,0-.3-1.06,1.79,1.79,0,0,0-.83-.37,25.64,25.64,0,0,0-4-.32h-.21l-.62-.54V241.8l.64-.56h.24c3.78.16,6.76.25,8.88.25,2.35,0,5.55-.08,9.5-.22,1.5,0,2.57-.06,3.24-.06,5.5,0,9.14,1,11.15,3.05a10,10,0,0,1,3,7.24,11.34,11.34,0,0,1-1.45,5.44,12.85,12.85,0,0,1-4.26,4.54,19.5,19.5,0,0,1-6.69,2.6q.92,1.25,2.59,3.45l4.44,5.87q2.16,2.91,4.62,6.14c2.16,2.83,2.83,3.39,3,3.5a3.24,3.24,0,0,0,1,.44,8.84,8.84,0,0,0,1.53.09h.25l.6.6v2l-.67.67-.29,0a26.86,26.86,0,0,0-3.48-.19c-1.46,0-3.07.07-4.8.19l-.32,0-.2-.24c-1.44-1.76-3.73-4.83-6.8-9.12-3.56-5-7.24-9.63-11-13.86l-.23-.26.57-1.74.46,0c1.07.06,1.9.09,2.5.09,3.44,0,6.15-.83,8.07-2.45a8.24,8.24,0,0,0,2.85-6.72,6.72,6.72,0,0,0-2.51-5.75,11.38,11.38,0,0,0-7.07-2,20.12,20.12,0,0,0-5.72.8c-.11.58-.32,2.85-.32,11.22v14.46l0,6.09a42.15,42.15,0,0,0,.18,4.47,2.28,2.28,0,0,0,.31,1.07,1.69,1.69,0,0,0,.84.39,22.68,22.68,0,0,0,4,.34h.19l.64.48v2.12l-.6.6h-.25l-5.52-.18c-1.47-.05-2.62-.07-3.45-.07-.65,0-3.65.09-8.92.25h-.26Z"/><path class="cls-1" d="M1279.2,242.07l.25-.22c3.82.17,6.78.25,8.91.25q3.53,0,9.53-.22,2.22-.06,3.21-.06,7.9,0,10.72,2.88a9.41,9.41,0,0,1,2.81,6.81,10.74,10.74,0,0,1-1.37,5.15,12.28,12.28,0,0,1-4.06,4.33,20.2,20.2,0,0,1-7.41,2.7c.58.81,1.64,2.22,3.16,4.22l4.43,5.87c1.44,1.94,3,4,4.63,6.14a19.9,19.9,0,0,0,3.18,3.66,3.87,3.87,0,0,0,1.24.51,10.56,10.56,0,0,0,1.64.09l.25.25v1.47l-.28.28a30.42,30.42,0,0,0-3.56-.18c-1.48,0-3.1.06-4.85.18q-2.14-2.62-6.78-9.09-5.37-7.5-11-13.9l.31-1c1.08.06,1.93.1,2.53.1q5.4,0,8.47-2.6a8.9,8.9,0,0,0,3.06-7.18,7.4,7.4,0,0,0-2.75-6.24,12,12,0,0,0-7.44-2.1,20.75,20.75,0,0,0-6.18.9q-.48.69-.47,11.72v14.46l0,6.09a40.18,40.18,0,0,0,.19,4.56,2.87,2.87,0,0,0,.45,1.38,2.39,2.39,0,0,0,1.14.58,26.32,26.32,0,0,0,4.16.36l.25.18V286l-.25.25-5.5-.19c-1.48,0-2.64-.06-3.47-.06-.65,0-3.62.08-8.94.25l-.25-.25v-1.57l.25-.18a32.55,32.55,0,0,0,3.88-.32,2.74,2.74,0,0,0,1.29-.48,2.48,2.48,0,0,0,.54-1.27,29.55,29.55,0,0,0,.23-4.31l0-6.59V256.82l-.06-6.1c0-2.37-.08-3.9-.17-4.59a2.88,2.88,0,0,0-.44-1.37,2.23,2.23,0,0,0-1.14-.56,26.82,26.82,0,0,0-4.16-.35l-.25-.22Z"/><path class="cls-1" d="M1346.15,287.76a28.68,28.68,0,0,1-7.9-1,15.4,15.4,0,0,1-5.51-2.68,10.73,10.73,0,0,1-2.94-3.56,13.27,13.27,0,0,1-1.15-4.36c-.17-1.6-.26-4.08-.26-7.36v-12l-.06-6.09c0-2.33-.07-3.85-.16-4.52a2.27,2.27,0,0,0-.3-1.06,1.79,1.79,0,0,0-.83-.37,25.64,25.64,0,0,0-4-.32h-.21l-.62-.54V241.8l.63-.56h.24c5.12.16,8.12.25,8.92.25s3.72-.09,9-.25h.23l.64.56v2.11l-.62.54H1341c-1.41,0-2.51.1-3.28.18a3.41,3.41,0,0,0-1.44.38c-.06,0-.3.26-.43,1.18a27.4,27.4,0,0,0-.16,3.43l-.07,7.19v9.93c0,3.24.07,5.65.21,7.15a12.06,12.06,0,0,0,.82,3.69,6.58,6.58,0,0,0,1.88,2.49,10.1,10.1,0,0,0,3.71,1.74,21.15,21.15,0,0,0,5.65.7,20.53,20.53,0,0,0,6.23-.93,9.18,9.18,0,0,0,4.27-2.58,8.86,8.86,0,0,0,1.91-4.47,52.66,52.66,0,0,0,.48-8.1v-9.62q0-2.43-.08-6.69c-.07-3.83-.26-4.54-.32-4.66a1.33,1.33,0,0,0-.77-.67,16.35,16.35,0,0,0-4.2-.34h-.25l-.6-.6V241.9l.6-.67.29,0c3,.16,5.53.25,7.37.25,1.58,0,4-.09,7.34-.25l.25,0,.67.6v2l-.65.57h-.22a28.58,28.58,0,0,0-3.73.22,1.88,1.88,0,0,0-.94.36,1.54,1.54,0,0,0-.36.76,27.25,27.25,0,0,0-.22,4l-.09,7v9.48a71,71,0,0,1-.45,9.05,12.27,12.27,0,0,1-2.06,5.66,14.85,14.85,0,0,1-3.74,3.68A16.48,16.48,0,0,1,1353,287,30.07,30.07,0,0,1,1346.15,287.76Z"/><path class="cls-1" d="M1322.78,242.07l.25-.22q7.76.26,8.94.25t9-.25l.25.22v1.56l-.25.22c-1.43,0-2.54.11-3.32.19a4,4,0,0,0-1.71.47,2.24,2.24,0,0,0-.7,1.61,28.49,28.49,0,0,0-.17,3.51l-.06,7.19v9.93c0,3.27.06,5.67.2,7.2a12.92,12.92,0,0,0,.88,3.88,7,7,0,0,0,2,2.71,10.41,10.41,0,0,0,3.94,1.86,21.48,21.48,0,0,0,5.81.72,21.16,21.16,0,0,0,6.42-.95,9.74,9.74,0,0,0,4.54-2.77,9.33,9.33,0,0,0,2-4.76,54,54,0,0,0,.48-8.2v-9.62q0-2.44-.07-6.7a21.54,21.54,0,0,0-.38-4.91,2,2,0,0,0-1.09-1,17.25,17.25,0,0,0-4.42-.39l-.25-.25v-1.47l.25-.28q4.62.26,7.4.25,2.37,0,7.38-.25l.28.25v1.5l-.28.25a27.59,27.59,0,0,0-3.83.24,2.44,2.44,0,0,0-1.25.51,2.12,2.12,0,0,0-.53,1.06,27.85,27.85,0,0,0-.24,4.13l-.09,7v9.49a71.73,71.73,0,0,1-.44,9,11.75,11.75,0,0,1-2,5.39,14.49,14.49,0,0,1-3.59,3.53,15.79,15.79,0,0,1-5.33,2.19,29.41,29.41,0,0,1-6.75.76,27.83,27.83,0,0,1-7.73-1,14.72,14.72,0,0,1-5.3-2.56,10.12,10.12,0,0,1-2.78-3.36,12.74,12.74,0,0,1-1.09-4.15c-.17-1.59-.25-4-.25-7.3v-12l-.06-6.1c0-2.37-.08-3.9-.17-4.59a2.88,2.88,0,0,0-.44-1.37,2.23,2.23,0,0,0-1.14-.56,26.82,26.82,0,0,0-4.16-.35l-.25-.22Z"/><path class="cls-1" d="M1386.36,287.76a26.94,26.94,0,0,1-11.6-2.37l-.2-.1-.36-.77,0-.18c.2-1.28.36-4.35.46-9.1V275l.6-.6h2l.59.6v.24a27,27,0,0,0,.4,4.73c.09.32.42.84,1.45,1.55a11.49,11.49,0,0,0,3.59,1.53,18,18,0,0,0,4.61.6,13.53,13.53,0,0,0,5.7-1.16,8.78,8.78,0,0,0,3.84-3.35,9.21,9.21,0,0,0,1.38-5,8,8,0,0,0-.65-3.34,5.59,5.59,0,0,0-1.77-2.22,8.32,8.32,0,0,0-2.7-1.28c-1-.29-2.66-.62-4.77-1s-3.75-.64-4.93-.91a17.47,17.47,0,0,1-3.64-1.3,10,10,0,0,1-3.11-2.28,10.21,10.21,0,0,1-2-3.38,12.19,12.19,0,0,1-.74-4.26,13.08,13.08,0,0,1,4.25-10c2.82-2.58,6.62-3.89,11.32-3.89a30,30,0,0,1,6,.68,24.62,24.62,0,0,1,6,2l.16.08.43.74-.06.24a42.83,42.83,0,0,0-.82,8.06v.26l-.65.58h-2.09l-.62-.55v-.27c0-2.46-.11-4-.19-4.65,0-.11-.2-.72-2.52-1.94a11.86,11.86,0,0,0-5.62-1.37,11.13,11.13,0,0,0-4.71,1,6.62,6.62,0,0,0-3.22,3.07,9.4,9.4,0,0,0-1.12,4.37,6.46,6.46,0,0,0,.66,3,5.57,5.57,0,0,0,1.67,2,7.46,7.46,0,0,0,2.45,1.13c1,.27,2.84.6,5.48,1a33.83,33.83,0,0,1,8.2,1.93,9.58,9.58,0,0,1,4.3,3.75,11.33,11.33,0,0,1,1.61,6.14,14.4,14.4,0,0,1-5.64,11.55A20.74,20.74,0,0,1,1386.36,287.76Z"/><path class="cls-1" d="M1375.3,275.25l.25-.25h1.53l.25.25a28.24,28.24,0,0,0,.42,4.89,4,4,0,0,0,1.69,1.87,11.7,11.7,0,0,0,3.78,1.61,18.36,18.36,0,0,0,4.76.63,14.06,14.06,0,0,0,6-1.22,9.33,9.33,0,0,0,4.11-3.58,9.8,9.8,0,0,0,1.47-5.29,8.69,8.69,0,0,0-.7-3.6,6.14,6.14,0,0,0-2-2.45,9.07,9.07,0,0,0-2.89-1.37,49.17,49.17,0,0,0-4.84-1q-3.13-.5-4.89-.9a16.86,16.86,0,0,1-3.52-1.25,9.61,9.61,0,0,1-2.92-2.14,9.88,9.88,0,0,1-1.87-3.19,11.5,11.5,0,0,1-.71-4,12.45,12.45,0,0,1,4.06-9.57q4.07-3.74,10.91-3.73a28.87,28.87,0,0,1,5.92.67,24.31,24.31,0,0,1,5.82,2l.22.38a42.17,42.17,0,0,0-.84,8.18l-.28.25h-1.63l-.25-.22q-.06-3.75-.18-4.71c-.09-.65-1-1.45-2.85-2.41a12.41,12.41,0,0,0-5.9-1.44,11.89,11.89,0,0,0-5,1.06,7.3,7.3,0,0,0-3.5,3.35,10,10,0,0,0-1.18,4.65,7.28,7.28,0,0,0,.71,3.27,6.2,6.2,0,0,0,1.86,2.25,8,8,0,0,0,2.66,1.23,56.29,56.29,0,0,0,5.54,1,33,33,0,0,1,8,1.89,9,9,0,0,1,4,3.51,10.73,10.73,0,0,1,1.51,5.82,13.76,13.76,0,0,1-5.42,11.09,20.09,20.09,0,0,1-13.13,4.43,26.15,26.15,0,0,1-11.34-2.31l-.19-.41C1375,283.12,1375.19,280.06,1375.3,275.25Z"/><path class="cls-1" d="M1436.13,286.85c-5.29-.16-8.29-.25-8.91-.25s-3.66.09-8.89.25h-.26l-.61-.61v-2.12l.64-.48h.19a31.89,31.89,0,0,0,3.8-.3,2.42,2.42,0,0,0,1-.34,2,2,0,0,0,.36-.95,24.33,24.33,0,0,0,.2-4.18l.06-6.59V253.07c0-.23,0-1.73-.23-7.55h-4.06c-1.9,0-3.56,0-4.93.13-1.67.09-2,.36-2,.37a11.34,11.34,0,0,0-.51,3.08l-.33,3.09-.61.61h-1.94l-.61-.6V252c0-5-.13-8.27-.28-9.76l0-.28.67-.68.27,0c3.58.16,9.66.25,18.06.25,8.56,0,14.64-.09,18.09-.25l.26,0,.68.68,0,.28c-.18,1.85-.28,5.13-.28,9.75v.26l-.6.6h-2l-.56-.63-.37-3.06a23.9,23.9,0,0,0-.37-2.74.83.83,0,0,0-.23-.42,6,6,0,0,0-1.72-.28c-1.13-.1-2.4-.15-3.79-.15H1431c-.15,4.31-.23,6.85-.23,7.55v18.21l.06,6.09c0,2.32.08,3.83.17,4.5a2.38,2.38,0,0,0,.28,1.05,2,2,0,0,0,.86.38,22.64,22.64,0,0,0,4,.34h.22l.59.51v2.06l-.56.64Z"/><path class="cls-1" d="M1445.34,241.85l.28.28q-.28,2.82-.28,9.81l-.25.25h-1.47l-.25-.28L1443,249a23.51,23.51,0,0,0-.39-2.83,1.33,1.33,0,0,0-.45-.75,5.65,5.65,0,0,0-2-.39c-1.15-.1-2.43-.16-3.84-.16h-5.91c-.16,4.71-.25,7.43-.25,8.16v18.21l.07,6.09c0,2.36.07,3.88.17,4.58a2.71,2.71,0,0,0,.44,1.38,2.48,2.48,0,0,0,1.14.56,26.4,26.4,0,0,0,4.18.36l.22.18V286l-.22.25q-8-.25-8.93-.25t-8.91.25l-.25-.25v-1.57l.25-.18a31.93,31.93,0,0,0,3.89-.32,2.69,2.69,0,0,0,1.28-.48,2.56,2.56,0,0,0,.55-1.27,24.91,24.91,0,0,0,.22-4.31l.06-6.59V253.07q0-.49-.25-8.16h-4.65c-1.92,0-3.58.05-5,.13s-2.2.3-2.42.64a11.26,11.26,0,0,0-.61,3.36l-.31,2.87-.29.28h-1.43l-.25-.25c0-5-.14-8.29-.28-9.81l.28-.28q5.43.26,18.09.25Q1440.12,242.1,1445.34,241.85Z"/><path class="cls-1" d="M1452.26,286.25v-1.5l.46-.58.12-.06a20.38,20.38,0,0,0,1.88-1,37.75,37.75,0,0,0,.33-5.1c.12-3.45.17-6.13.17-8V258.57l0-7.09c0-1.53,0-2.78-.06-3.74a11.62,11.62,0,0,0-.2-2,1.82,1.82,0,0,0-.24-.64,1,1,0,0,0-.4-.24,7.35,7.35,0,0,0-1.4-.26l-2.56-.2-.6-.53V241.8l.63-.56h.23c7.07.12,11.68.18,13.71.18,6.82,0,13-.06,18.23-.18h.32l.51.71-.08.27a53.49,53.49,0,0,0-1.13,9.29v.18l-.48.64h-2.07l-.69-.61,0-.31a3.75,3.75,0,0,0,0-.44,30.18,30.18,0,0,0-.35-4.63,17.66,17.66,0,0,0-4.95-1c-2.3-.18-4.05-.27-5.19-.27-1.5,0-3.42.1-5.71.3l-.11,4.46-.1,5.71-.09,5.75c2,.11,3.9.16,5.61.16,1.88,0,3.48-.06,4.75-.18a9,9,0,0,0,2-.31,1,1,0,0,0,.22-.43,10.87,10.87,0,0,0,.28-1.93l.13-2.15.59-.59H1478l.61.61v.26c0,2.27-.1,4.55-.16,6.84l.16,7.26-.61.61h-1.94l-.57-.58-.25-2.08a24,24,0,0,0-.38-2.51.82.82,0,0,0-.34-.4,5.71,5.71,0,0,0-2-.4c-1.22-.12-2.94-.18-5.09-.18-1.1,0-2.77,0-5,.13-.09,1.77-.13,4.51-.13,8.17,0,3.95,0,7,.13,9h5.17c5,0,8.19-.06,9.44-.18a11.88,11.88,0,0,0,3.2-.77c.18-.54.45-1.55.81-3,.42-1.71.67-2.79.73-3.2l0-.26.69-.48h1.92l.68.6-.07.35a44,44,0,0,0-.54,4.61c-.17,2.2-.26,4.11-.26,5.67v.22l-.56.64h-.28c-3.93-.12-9.18-.18-15.6-.18l-8.51-.07c-2,0-4,.09-6.13.25l-.28,0Z"/><path class="cls-1" d="M1450.33,242.07l.25-.22q10.73.19,13.72.19,10.25,0,18.24-.19l.16.22a53.32,53.32,0,0,0-1.16,9.4l-.18.25h-1.54l-.28-.25a4.6,4.6,0,0,0,0-.5,30.52,30.52,0,0,0-.4-5.06,17.13,17.13,0,0,0-5.45-1.14c-2.33-.17-4.07-.26-5.24-.26-1.64,0-3.75.11-6.31.34l-.12,5-.1,5.72-.09,6.34c2.25.12,4.32.19,6.22.19s3.52-.07,4.81-.19a8.53,8.53,0,0,0,2.26-.39,1.31,1.31,0,0,0,.5-.78,11,11,0,0,0,.3-2.05l.12-1.94.25-.25h1.44l.25.25c0,2.27-.09,4.56-.15,6.85l.15,7-.25.25h-1.44l-.25-.25-.21-1.88c-.19-1.46-.33-2.33-.41-2.61a1.38,1.38,0,0,0-.58-.73,6.11,6.11,0,0,0-2.33-.5c-1.25-.13-3-.19-5.15-.19-1.21,0-3.05,0-5.53.16-.1,1.75-.16,4.66-.16,8.75,0,4.37.06,7.59.16,9.65h5.75q7.59,0,9.5-.19a12.34,12.34,0,0,0,3.62-.91,33.82,33.82,0,0,0,.92-3.32c.43-1.74.67-2.83.74-3.27l.31-.22h1.5l.25.22a43.14,43.14,0,0,0-.55,4.69c-.18,2.23-.27,4.13-.27,5.72l-.21.25q-6-.19-15.62-.19l-8.5-.06q-3,0-6.19.25l-.25-.25v-1l.25-.32a15.89,15.89,0,0,0,2.11-1.17c.18-.15.32-2,.44-5.47s.17-6.15.17-8V258.57l0-7.1c0-1.54,0-2.79-.06-3.76a12,12,0,0,0-.22-2.08,2.53,2.53,0,0,0-.36-.87,1.51,1.51,0,0,0-.66-.42,6.51,6.51,0,0,0-1.54-.3l-2.38-.19-.25-.22Z"/><path class="cls-1" d="M1491.21,286.25v-1.5l.47-.58.11-.06c1.24-.63,1.71-.9,1.89-1a39.07,39.07,0,0,0,.33-5.1c.11-3.53.17-6.14.17-8V258.57l0-7.09c0-1.53,0-2.78-.06-3.74a11.34,11.34,0,0,0-.21-2,1.61,1.61,0,0,0-.24-.64,1,1,0,0,0-.4-.24,7.16,7.16,0,0,0-1.4-.26l-2.55-.2-.61-.53V241.8l.64-.56h.25c3.56.16,6,.25,7.34.25l14.61-.32a38.22,38.22,0,0,1,10.43,1.2,18.31,18.31,0,0,1,7.35,4.2,20.14,20.14,0,0,1,4.86,6.92,21.6,21.6,0,0,1,1.66,8.41,25.33,25.33,0,0,1-1.51,8.54A24.68,24.68,0,0,1,1530,278a23.74,23.74,0,0,1-6.32,5.4,23,23,0,0,1-7.11,2.74,38.2,38.2,0,0,1-7.2.68c-1.64,0-4.65-.06-9.21-.18-1.47-.05-2.44-.07-2.92-.07-1.42,0-3.15.09-5.16.25l-.28,0Zm10.22-3.92a39,39,0,0,0,6.76.53c4.72,0,8.54-.8,11.34-2.36a14.67,14.67,0,0,0,6.26-6.94,25.51,25.51,0,0,0,2.1-10.53c0-5.7-1.53-10.17-4.55-13.29s-7.87-4.69-14.43-4.69a51.73,51.73,0,0,0-7.48.54c-.15,3.27-.23,7-.23,11v9.81l.07,9.18C1501.27,277.32,1501.32,279.58,1501.43,282.33Z"/><path class="cls-1" d="M1489.29,242.07l.25-.22q5.4.26,7.37.25l14.62-.31a37.33,37.33,0,0,1,10.25,1.17,17.73,17.73,0,0,1,7.11,4.06,19.33,19.33,0,0,1,4.71,6.72,20.93,20.93,0,0,1,1.61,8.17,24.69,24.69,0,0,1-1.47,8.34,24.32,24.32,0,0,1-4.17,7.39,22.66,22.66,0,0,1-6.15,5.26,21.88,21.88,0,0,1-6.92,2.67,37,37,0,0,1-7.09.68c-1.63,0-4.69-.07-9.19-.19l-2.94-.06c-1.43,0-3.17.08-5.21.25l-.25-.25v-1l.25-.32a15.89,15.89,0,0,0,2.11-1.17c.17-.15.32-2,.43-5.47s.18-6.15.18-8V258.57l0-7.1c0-1.54,0-2.79-.06-3.76a11,11,0,0,0-.22-2.08,2.19,2.19,0,0,0-.36-.87,1.41,1.41,0,0,0-.65-.42,6.63,6.63,0,0,0-1.55-.3l-2.37-.19-.25-.22Zm11.56,40.77a38.1,38.1,0,0,0,7.34.63q7.27,0,11.63-2.44a15.16,15.16,0,0,0,6.52-7.22,26,26,0,0,0,2.15-10.78q0-8.83-4.71-13.71t-14.87-4.87a50.07,50.07,0,0,0-8.06.62q-.25,5.13-.25,11.56v9.81l.06,9.18C1500.66,277.42,1500.72,279.82,1500.85,282.84Z"/><path class="cls-1" d="M1602,286.85c-2.18-.18-4.17-.28-5.92-.28-3.44.11-6.9.2-10.36.28h-.26l-.61-.61v-2.13l.6-.6h.25a23,23,0,0,0,4.23-.28c.35-.1.42-.25.42-.49a4.77,4.77,0,0,0-.39-1.59l-3.69-9.15h-17.28l-3.25,7.63a8.61,8.61,0,0,0-.86,2.92c0,.2.06.41.49.6a13.12,13.12,0,0,0,4,.36h.22l.66.58v2.15l-.62.62-.28,0c-2.65-.16-5-.25-7-.25-2.27,0-4.59.09-6.89.25l-.26,0-.67-.6V284.1l.65-.58h.23a12.74,12.74,0,0,0,2.76-.21,1.89,1.89,0,0,0,.89-.63,23.5,23.5,0,0,0,2-3.84l3.28-7.12,8.49-19.24q2.41-5.64,4.78-11.3l.16-.37h2.83l15.28,35.92c.51,1.16,1.11,2.45,1.78,3.85a11,11,0,0,0,1.28,2.29,2,2,0,0,0,.75.44,9,9,0,0,0,2.39.21h.24l.6.6v2.13l-.62.62Zm-17.45-18.74-6.94-16.66-7,16.66Z"/><path class="cls-1" d="M1555.36,286.25l-.29-.25v-1.63l.29-.25a13.69,13.69,0,0,0,2.93-.23,2.54,2.54,0,0,0,1.17-.81,25.34,25.34,0,0,0,2.08-4l3.28-7.12,8.5-19.25q2.4-5.66,4.78-11.3h2l13.34,31.36,1.78,4.19c.52,1.18,1.12,2.48,1.8,3.87a11.53,11.53,0,0,0,1.4,2.47,2.76,2.76,0,0,0,1,.58,10.73,10.73,0,0,0,2.58.23l.25.25V286l-.25.25q-3.32-.28-6-.28l-10.37.28-.25-.25v-1.63l.25-.25a24.39,24.39,0,0,0,4.37-.3,1,1,0,0,0,.88-1.07,5.3,5.3,0,0,0-.44-1.81l-3.84-9.53h-18.09l-3.41,8a9.48,9.48,0,0,0-.9,3.16,1.23,1.23,0,0,0,.84,1.16,14.33,14.33,0,0,0,4.25.4l.28.25V286l-.25.25q-4-.25-7.06-.25Q1558.86,286,1555.36,286.25Zm14.24-17.53h15.81l-7.84-18.84Z"/><path class="cls-1" d="M1607.82,286.25v-1.5l.47-.58.12-.06a20.38,20.38,0,0,0,1.88-1,36.9,36.9,0,0,0,.33-5.1c.12-3.53.17-6.14.17-8V258.57l0-7.09c0-1.53,0-2.78-.06-3.74a11.62,11.62,0,0,0-.2-2,2.11,2.11,0,0,0-.24-.64,1,1,0,0,0-.4-.24,7.55,7.55,0,0,0-1.4-.26l-2.56-.2-.61-.53V241.8l.65-.56h.24c3.57.16,6,.25,7.34.25l14.61-.32a38.17,38.17,0,0,1,10.43,1.2,18.25,18.25,0,0,1,7.35,4.2,20.17,20.17,0,0,1,4.87,6.92,21.78,21.78,0,0,1,1.65,8.41,25.32,25.32,0,0,1-1.5,8.54,24.92,24.92,0,0,1-4.28,7.58,23.7,23.7,0,0,1-6.31,5.4,23,23,0,0,1-7.11,2.74,38.31,38.31,0,0,1-7.21.68c-1.63,0-4.64-.06-9.2-.18-1.47-.05-2.45-.07-2.92-.07-1.42,0-3.16.09-5.17.25l-.28,0Zm10.23-3.92a38.85,38.85,0,0,0,6.75.53c4.73,0,8.54-.8,11.34-2.36a14.62,14.62,0,0,0,6.26-6.94,25.51,25.51,0,0,0,2.1-10.53c0-5.7-1.53-10.17-4.55-13.29s-7.86-4.69-14.43-4.69a51.73,51.73,0,0,0-7.48.54c-.15,3.27-.22,7-.22,11v9.81l.06,9.18C1617.88,277.32,1617.94,279.58,1618.05,282.33Z"/><path class="cls-1" d="M1605.9,242.07l.25-.22q5.4.26,7.37.25l14.62-.31a37.28,37.28,0,0,1,10.25,1.17,17.6,17.6,0,0,1,7.11,4.06,19.49,19.49,0,0,1,4.72,6.72,20.93,20.93,0,0,1,1.61,8.17,24.69,24.69,0,0,1-1.47,8.34,24.32,24.32,0,0,1-4.17,7.39,22.85,22.85,0,0,1-6.16,5.26,21.88,21.88,0,0,1-6.92,2.67,37,37,0,0,1-7.09.68c-1.63,0-4.69-.07-9.18-.19l-2.94-.06c-1.44,0-3.18.08-5.22.25l-.25-.25v-1l.25-.32a15.89,15.89,0,0,0,2.11-1.17c.18-.15.32-2,.44-5.47s.17-6.15.17-8V258.57l0-7.1c0-1.54,0-2.79-.06-3.76a13.07,13.07,0,0,0-.22-2.08,2.53,2.53,0,0,0-.36-.87,1.51,1.51,0,0,0-.66-.42,6.63,6.63,0,0,0-1.54-.3l-2.38-.19-.25-.22Zm11.56,40.77a38.1,38.1,0,0,0,7.34.63q7.28,0,11.64-2.44a15.14,15.14,0,0,0,6.51-7.22,25.88,25.88,0,0,0,2.16-10.78q0-8.83-4.72-13.71t-14.87-4.87a50.16,50.16,0,0,0-8.06.62q-.26,5.13-.25,11.56v9.81l.06,9.18C1617.27,277.42,1617.33,279.82,1617.46,282.84Z"/><path class="cls-1" d="M1676.76,287.17l-.14-.42c-.31-.9-1.59-4.33-3.9-10.48L1662.1,250a33.25,33.25,0,0,0-2.2-5s-.47-.4-3.31-.59l-.23,0-.61-.62v-1.94l.64-.65.28,0c3.15.16,5.87.25,8.09.25,2.07,0,4.84-.09,8.25-.25l.26,0,.62.62v2.22l-.6.61H1673a22.3,22.3,0,0,0-4.32.2c-.32.1-.32.22-.32.32a27,27,0,0,0,1,3.13c.66,1.95,1.26,3.62,1.77,5l9.22,23.28,7.59-19.07c.55-1.38,1.38-3.64,2.46-6.73,1.38-4,1.59-5.08,1.59-5.39s-.08-.34-.33-.41a31.92,31.92,0,0,0-4.46-.51l-.2,0-.64-.56v-2l.67-.59h.25c3.61.16,5.94.25,6.94.25.8,0,2.92-.09,6.28-.25l.27,0,.61.62v2l-.59.6h-.24a8.34,8.34,0,0,0-2.46.27,1.67,1.67,0,0,0-.57.71c-.23.46-1,2.12-2.22,4.91l-9.74,24c-2.17,5.32-3.73,9.5-4.64,12.42l-.13.43Z"/><path class="cls-1" d="M1677.19,286.56q-.46-1.38-3.91-10.5l-10.62-26.27a38.77,38.77,0,0,0-2.28-5.11c-.31-.41-1.56-.68-3.75-.83l-.28-.28v-1.44l.28-.28q4.78.26,8.13.25,3.12,0,8.27-.25l.25.25v1.72l-.25.25a22.61,22.61,0,0,0-4.51.24.89.89,0,0,0-.73.89,23.22,23.22,0,0,0,1,3.32c.66,2,1.26,3.63,1.78,5l9.78,24.71,8.15-20.5q.84-2.09,2.47-6.75a28.53,28.53,0,0,0,1.62-5.59,1,1,0,0,0-.76-1,38.6,38.6,0,0,0-4.58-.53l-.28-.25v-1.5l.28-.25c3.64.17,6,.25,7,.25q1.21,0,6.31-.25l.25.25v1.5l-.25.25a8.69,8.69,0,0,0-2.72.35,2.12,2.12,0,0,0-.83,1q-.36.72-2.23,4.94l-9.75,24q-3.29,8-4.65,12.47Z"/><path class="cls-1" d="M1704.1,286.25v-2.12l.65-.48h.19a32,32,0,0,0,3.78-.3,2.28,2.28,0,0,0,1-.34,1.94,1.94,0,0,0,.35-.94,27.22,27.22,0,0,0,.22-4.19l0-6.59V256.82l-.06-6.09c0-2.34-.08-3.86-.17-4.52a2.37,2.37,0,0,0-.29-1.06,1.79,1.79,0,0,0-.84-.37,25.25,25.25,0,0,0-4-.32h-.22l-.62-.54V241.8l.64-.56,4.15.13c2.54.08,4.23.13,5,.13s3.72-.09,8.94-.25h.24l.64.56v2.11l-.62.54h-.22c-1.41,0-2.51.1-3.28.18a3.41,3.41,0,0,0-1.44.38c-.07,0-.31.26-.43,1.18a27,27,0,0,0-.17,3.43l-.06,7.19v14.46l0,6.09a41.68,41.68,0,0,0,.18,4.47c.13.82.28,1,.32,1.07a1.69,1.69,0,0,0,.84.39,22.48,22.48,0,0,0,4,.34h.2l.64.48v2.12l-.61.6h-.25l-5.52-.18c-1.46-.05-2.62-.07-3.44-.07-.45,0-2.36,0-8.92.25h-.26Z"/><path class="cls-1" d="M1705,241.85l3.91.13c2.56.08,4.23.12,5,.12s3.69-.08,9-.25l.25.22v1.56l-.25.22c-1.44,0-2.54.11-3.33.19a4,4,0,0,0-1.7.47,2.2,2.2,0,0,0-.7,1.61,26.62,26.62,0,0,0-.17,3.51l-.06,7.19v14.46l0,6.09a43.91,43.91,0,0,0,.18,4.56,3,3,0,0,0,.46,1.38,2.34,2.34,0,0,0,1.14.58,26.14,26.14,0,0,0,4.15.36l.25.18V286l-.25.25-5.5-.19c-1.48,0-2.63-.06-3.46-.06q-1,0-8.94.25l-.25-.25v-1.57l.25-.18a32.1,32.1,0,0,0,3.87-.32,2.79,2.79,0,0,0,1.3-.48,2.41,2.41,0,0,0,.53-1.27,27.63,27.63,0,0,0,.24-4.31l0-6.59V256.82l-.06-6.1c0-2.37-.08-3.9-.18-4.59a2.9,2.9,0,0,0-.43-1.37,2.23,2.23,0,0,0-1.14-.56,27,27,0,0,0-4.16-.35l-.25-.22v-1.56Z"/><path class="cls-1" d="M1739.42,287.76a26.94,26.94,0,0,1-11.6-2.37l-.2-.1-.36-.77,0-.18c.2-1.28.36-4.35.46-9.1V275l.6-.6h2l.6.6v.24a27,27,0,0,0,.4,4.73c.09.32.42.84,1.45,1.55a11.49,11.49,0,0,0,3.59,1.53,18,18,0,0,0,4.61.6,13.53,13.53,0,0,0,5.7-1.16,8.78,8.78,0,0,0,3.84-3.35,9.21,9.21,0,0,0,1.38-5,8,8,0,0,0-.65-3.34,5.59,5.59,0,0,0-1.77-2.22,8.32,8.32,0,0,0-2.7-1.28c-1-.29-2.66-.62-4.77-1s-3.74-.64-4.93-.91a17.47,17.47,0,0,1-3.64-1.3,10,10,0,0,1-3.11-2.28,10.21,10.21,0,0,1-2-3.38,12.19,12.19,0,0,1-.74-4.26,13.05,13.05,0,0,1,4.26-10c2.81-2.58,6.61-3.89,11.31-3.89a30,30,0,0,1,6,.68,24.62,24.62,0,0,1,6,2l.16.08.43.74-.06.24a42.83,42.83,0,0,0-.82,8.06v.26l-.65.58h-2.08l-.63-.55v-.27c0-2.46-.1-4-.19-4.65,0-.11-.2-.72-2.52-1.94a11.86,11.86,0,0,0-5.62-1.37,11.13,11.13,0,0,0-4.71,1,6.62,6.62,0,0,0-3.22,3.07,9.4,9.4,0,0,0-1.12,4.37,6.46,6.46,0,0,0,.66,3,5.57,5.57,0,0,0,1.67,2,7.56,7.56,0,0,0,2.45,1.13c1,.27,2.84.6,5.48,1a33.83,33.83,0,0,1,8.2,1.93,9.58,9.58,0,0,1,4.3,3.75,11.33,11.33,0,0,1,1.61,6.14,14.4,14.4,0,0,1-5.64,11.55A20.74,20.74,0,0,1,1739.42,287.76Z"/><path class="cls-1" d="M1728.36,275.25l.25-.25h1.53l.25.25a28.24,28.24,0,0,0,.42,4.89,4,4,0,0,0,1.69,1.87,11.7,11.7,0,0,0,3.78,1.61,18.36,18.36,0,0,0,4.76.63,14.06,14.06,0,0,0,6-1.22,9.33,9.33,0,0,0,4.11-3.58,9.8,9.8,0,0,0,1.47-5.29,8.69,8.69,0,0,0-.7-3.6,6.14,6.14,0,0,0-2-2.45,9.07,9.07,0,0,0-2.89-1.37,49.17,49.17,0,0,0-4.84-1q-3.14-.5-4.89-.9a16.86,16.86,0,0,1-3.52-1.25,9.61,9.61,0,0,1-2.92-2.14,9.88,9.88,0,0,1-1.87-3.19,11.5,11.5,0,0,1-.71-4,12.42,12.42,0,0,1,4.07-9.57q4.05-3.74,10.9-3.73a28.87,28.87,0,0,1,5.92.67,24.31,24.31,0,0,1,5.82,2l.22.38a43,43,0,0,0-.84,8.18l-.28.25h-1.63l-.25-.22q-.06-3.75-.18-4.71c-.09-.65-1-1.45-2.85-2.41a12.41,12.41,0,0,0-5.9-1.44,11.89,11.89,0,0,0-5,1.06,7.3,7.3,0,0,0-3.5,3.35,10,10,0,0,0-1.18,4.65,7.28,7.28,0,0,0,.71,3.27,6.2,6.2,0,0,0,1.86,2.25,8,8,0,0,0,2.66,1.23,56.29,56.29,0,0,0,5.54,1,33,33,0,0,1,8,1.89,9,9,0,0,1,4,3.51,10.73,10.73,0,0,1,1.51,5.82,13.76,13.76,0,0,1-5.42,11.09,20.09,20.09,0,0,1-13.13,4.43,26.18,26.18,0,0,1-11.34-2.31l-.19-.41C1728.1,283.12,1728.25,280.06,1728.36,275.25Z"/><path class="cls-1" d="M1784.59,287.76A25.89,25.89,0,0,1,1775,286a19.68,19.68,0,0,1-7.52-5.23,21.4,21.4,0,0,1-4.5-8,28.55,28.55,0,0,1-1.39-8.27,28.19,28.19,0,0,1,1.38-8.94,20.84,20.84,0,0,1,4.71-7.73,22.68,22.68,0,0,1,8-5.49,27.35,27.35,0,0,1,10.54-1.94c7.23,0,13.08,2,17.38,6s6.5,9.44,6.5,16.27a26.58,26.58,0,0,1-3.16,13,22.32,22.32,0,0,1-9.1,9A27.49,27.49,0,0,1,1784.59,287.76Zm.44-43.52c-4.87,0-8.74,1.53-11.52,4.55s-4.22,7.62-4.22,13.62a29.77,29.77,0,0,0,1.22,8,21,21,0,0,0,3.58,7.32,15.24,15.24,0,0,0,5.43,4.49,17.42,17.42,0,0,0,15.35-.66,13.41,13.41,0,0,0,5.5-6.6,26.37,26.37,0,0,0,1.92-10.25,27.48,27.48,0,0,0-2.2-11.16,14.59,14.59,0,0,0-6.14-7.12A18.17,18.17,0,0,0,1785,244.24Z"/><path class="cls-1" d="M1762.19,264.47a27.9,27.9,0,0,1,1.34-8.75,20.31,20.31,0,0,1,4.58-7.51,22.1,22.1,0,0,1,7.79-5.34,26.72,26.72,0,0,1,10.31-1.89q10.65,0,17,5.79t6.31,15.83a25.8,25.8,0,0,1-3.1,12.68,21.62,21.62,0,0,1-8.85,8.75,26.76,26.76,0,0,1-13,3.12,25.19,25.19,0,0,1-9.37-1.7,19.14,19.14,0,0,1-7.3-5.08,20.54,20.54,0,0,1-4.37-7.81A27.65,27.65,0,0,1,1762.19,264.47Zm6.5-2.06a30.51,30.51,0,0,0,1.23,8.2,21.37,21.37,0,0,0,3.69,7.53,15.87,15.87,0,0,0,5.65,4.67,18,18,0,0,0,15.92-.69,13.91,13.91,0,0,0,5.75-6.89,26.75,26.75,0,0,0,2-10.48,27.91,27.91,0,0,0-2.25-11.4,15.05,15.05,0,0,0-6.41-7.4,18.53,18.53,0,0,0-9.21-2.32q-7.59,0-12,4.75T1768.69,262.41Z"/><path class="cls-1" d="M1812.91,286.25v-2.12l.64-.48h.19a31.83,31.83,0,0,0,3.78-.3,2.38,2.38,0,0,0,1-.34,2,2,0,0,0,.34-.94,28.09,28.09,0,0,0,.22-4.19l0-6.59V256.82l-.07-6.09c0-2.34-.07-3.86-.16-4.52a2.27,2.27,0,0,0-.3-1.06,1.79,1.79,0,0,0-.83-.37,25.64,25.64,0,0,0-4-.32h-.21l-.62-.54V241.8l.64-.56h.24c3.78.16,6.76.25,8.88.25,2.35,0,5.55-.08,9.5-.22,1.5,0,2.57-.06,3.24-.06,5.5,0,9.14,1,11.15,3.05a10.06,10.06,0,0,1,3,7.24,11.34,11.34,0,0,1-1.45,5.44,12.85,12.85,0,0,1-4.26,4.54,19.5,19.5,0,0,1-6.69,2.6q.91,1.25,2.59,3.45l4.44,5.87q2.16,2.91,4.62,6.14c2.16,2.83,2.83,3.39,3,3.5a3.15,3.15,0,0,0,1,.44,8.84,8.84,0,0,0,1.53.09h.25l.6.6v2l-.67.67-.29,0a26.86,26.86,0,0,0-3.48-.19c-1.46,0-3.07.07-4.8.19l-.32,0-.2-.24c-1.44-1.76-3.73-4.83-6.8-9.12-3.56-5-7.24-9.63-11-13.86l-.23-.26.56-1.74.47,0c1.07.06,1.9.09,2.5.09,3.44,0,6.15-.83,8.07-2.45a8.24,8.24,0,0,0,2.85-6.72,6.72,6.72,0,0,0-2.51-5.75,11.38,11.38,0,0,0-7.07-2,20.12,20.12,0,0,0-5.72.8c-.11.58-.32,2.85-.32,11.22v14.46l0,6.09a42.15,42.15,0,0,0,.18,4.47,2.28,2.28,0,0,0,.31,1.07,1.69,1.69,0,0,0,.84.39,22.68,22.68,0,0,0,4,.34h.19l.64.48v2.12l-.6.6h-.25l-5.52-.18c-1.47-.05-2.62-.07-3.45-.07-.65,0-3.65.09-8.92.25h-.26Z"/><path class="cls-1" d="M1813.51,242.07l.25-.22c3.82.17,6.78.25,8.91.25q3.52,0,9.53-.22,2.22-.06,3.21-.06,7.9,0,10.72,2.88a9.41,9.41,0,0,1,2.81,6.81,10.74,10.74,0,0,1-1.37,5.15,12.28,12.28,0,0,1-4.06,4.33,20.2,20.2,0,0,1-7.41,2.7c.58.81,1.64,2.22,3.16,4.22l4.43,5.87c1.44,1.94,3,4,4.63,6.14a19.9,19.9,0,0,0,3.18,3.66,3.87,3.87,0,0,0,1.24.51,10.56,10.56,0,0,0,1.64.09l.25.25v1.47l-.28.28a30.42,30.42,0,0,0-3.56-.18c-1.48,0-3.1.06-4.85.18q-2.14-2.62-6.78-9.09-5.37-7.5-11-13.9l.31-1c1.08.06,1.92.1,2.53.1q5.4,0,8.47-2.6a8.9,8.9,0,0,0,3.06-7.18,7.4,7.4,0,0,0-2.75-6.24,12,12,0,0,0-7.44-2.1,20.75,20.75,0,0,0-6.18.9q-.48.69-.47,11.72v14.46l0,6.09a40.18,40.18,0,0,0,.19,4.56,2.87,2.87,0,0,0,.45,1.38,2.39,2.39,0,0,0,1.14.58,26.32,26.32,0,0,0,4.16.36l.25.18V286l-.25.25-5.5-.19c-1.48,0-2.64-.06-3.47-.06-.65,0-3.62.08-8.94.25l-.25-.25v-1.57l.25-.18a32.55,32.55,0,0,0,3.88-.32,2.74,2.74,0,0,0,1.29-.48,2.48,2.48,0,0,0,.54-1.27,29.55,29.55,0,0,0,.23-4.31l0-6.59V256.82l-.06-6.1c0-2.37-.08-3.9-.17-4.59a2.88,2.88,0,0,0-.44-1.37,2.23,2.23,0,0,0-1.14-.56,26.82,26.82,0,0,0-4.16-.35l-.25-.22Z"/><path class="cls-1" d="M1867.14,286.25v-2.12l.64-.48h.19a31.1,31.1,0,0,0,3.81-.3,2.24,2.24,0,0,0,1-.34,1.71,1.71,0,0,0,.33-.84,19.8,19.8,0,0,0,.2-3.39l.07-5.34v-5.81a90.83,90.83,0,0,0-4.51-7.89l-2.75-4.47c-.86-1.4-2-3.06-3.27-4.92a27.78,27.78,0,0,0-3-3.75,4.51,4.51,0,0,0-1.45-1.05,16.18,16.18,0,0,0-3-.14h-.25l-.63-.64v-1.82l.59-.59,9.28-1.54.2.14a11.49,11.49,0,0,1,1.94,1.75,31,31,0,0,1,2.65,3.82c1.14,1.82,2.62,4.4,4.41,7.65,1.61,2.93,3.18,5.9,4.68,8.85l2.61-4.15,3.59-6,6.81-11.67.39,0a23.12,23.12,0,0,0,2.32.12c.46,0,1.18,0,2.13-.12l.28,0,.63.63v1.08l-.16.17c-1,1.13-2.63,3.21-4.8,6.19s-3.81,5.35-4.87,7-2.38,3.83-3.94,6.4a30.83,30.83,0,0,0-2.5,4.49,6.32,6.32,0,0,0-.19,1.68v4.59l0,4.68a29.9,29.9,0,0,0,.19,3.7,2.44,2.44,0,0,0,.32,1.1,1.67,1.67,0,0,0,.83.37,24.87,24.87,0,0,0,4,.32h.19l.64.48v2.12l-.6.6h-.25l-5.52-.18c-1.47-.05-2.62-.07-3.45-.07-.67,0-3.67.09-8.92.25h-.26Z"/><path class="cls-1" d="M1855.37,244.79l-.28-.28V243.2l.28-.28,8.84-1.47a10.26,10.26,0,0,1,1.83,1.65,29.43,29.43,0,0,1,2.59,3.74q1.71,2.73,4.39,7.62c1.8,3.26,3.51,6.52,5.16,9.79l3.19-5.06,3.59-6,6.62-11.34a21.61,21.61,0,0,0,2.38.13c.47,0,1.2,0,2.18-.13l.25.25v.6q-1.56,1.71-4.84,6.23t-4.89,7.06q-1.61,2.55-4,6.4a33.1,33.1,0,0,0-2.56,4.64,6.75,6.75,0,0,0-.22,1.85v4.59l0,4.68a31.19,31.19,0,0,0,.2,3.8,3,3,0,0,0,.47,1.41,2.27,2.27,0,0,0,1.13.54,26.31,26.31,0,0,0,4.14.35l.25.18V286l-.25.25-5.5-.19c-1.48,0-2.64-.06-3.47-.06-.67,0-3.64.08-8.93.25l-.25-.25v-1.57l.25-.18a32,32,0,0,0,3.9-.32,2.78,2.78,0,0,0,1.27-.48,2.24,2.24,0,0,0,.51-1.16,20.9,20.9,0,0,0,.22-3.51l.06-5.34V267.5a85.25,85.25,0,0,0-4.59-8.09l-2.75-4.47q-1.3-2.12-3.3-4.95a26.88,26.88,0,0,0-3.07-3.84,5.13,5.13,0,0,0-1.69-1.19A17.06,17.06,0,0,0,1855.37,244.79Z"/></svg>